<svg width="26" height="26" viewBox="0 0 26 26" fill="none" xmlns="http://www.w3.org/2000/svg">
<path fill-rule="evenodd" clip-rule="evenodd" d="M23.7151 4.62109H14.2554L16.2278 20.4485C16.2627 21.0959 16.0857 21.7054 15.6632 22.1825L12.3229 26H23.7151C24.9751 26 26.0002 24.9749 26.0002 23.7148V6.95703C26.0002 5.69695 24.9751 4.62109 23.7151 4.62109ZM20.8979 11.53C21.0512 11.5967 21.2246 11.63 21.4179 11.63C21.8379 11.63 22.1679 11.4767 22.4079 11.17C22.5944 10.9331 22.7142 10.639 22.7673 10.2877C22.7968 10.0931 22.6356 9.93 22.4387 9.93H22.0462C21.8657 9.93 21.7299 10.0808 21.6236 10.2266C21.6125 10.2417 21.6006 10.2562 21.5879 10.27C21.5079 10.35 21.4046 10.39 21.2779 10.39C21.2112 10.39 21.1412 10.3733 21.0679 10.34C21.0012 10.3067 20.9112 10.25 20.7979 10.17C20.6312 10.0567 20.4712 9.96667 20.3179 9.9C20.1646 9.83333 19.9912 9.8 19.7979 9.8C19.3779 9.8 19.0446 9.95667 18.7979 10.27C18.6144 10.5045 18.4971 10.8053 18.4461 11.1724C18.4191 11.3672 18.58 11.53 18.7768 11.53H19.167C19.3486 11.53 19.4829 11.3784 19.5832 11.2271C19.5967 11.2067 19.6116 11.1876 19.6279 11.17C19.7079 11.0833 19.8112 11.04 19.9379 11.04C20.0046 11.04 20.0712 11.06 20.1379 11.1C20.2112 11.1333 20.3046 11.1867 20.4179 11.26C20.5846 11.3733 20.7446 11.4633 20.8979 11.53ZM19.1596 13.1144C19.1388 12.7435 18.8321 12.4535 18.4607 12.4535H18.2572C17.8706 12.4535 17.5572 12.7669 17.5572 13.1535V19.15C17.5572 19.5366 17.8706 19.85 18.2572 19.85H18.5183C18.9049 19.85 19.2183 19.5366 19.2183 19.15V14.5863C19.5464 13.9802 20.0454 13.6771 20.7154 13.6771C21.1756 13.6771 21.5061 13.7911 21.7066 14.0189C21.9116 14.2422 22.0142 14.5886 22.0142 15.058V19.15C22.0142 19.5366 22.3276 19.85 22.7142 19.85H22.9753C23.3619 19.85 23.6753 19.5366 23.6753 19.15V14.9623C23.648 13.1986 22.8641 12.3168 21.3238 12.3168C20.4351 12.3168 19.7173 12.6472 19.1704 13.308L19.1596 13.1144Z" fill="#FEF9C2"/>
<path d="M9.03086 23.9983L8.90015 22.9531H12.9053L10.348 25.7683C9.58305 25.4119 9.118 24.6982 9.03086 23.9983Z" fill="#FEF9C2"/>
<path d="M7.42406 13.03C7.08806 13.226 6.70073 13.324 6.26206 13.324C5.81406 13.324 5.46406 13.2307 5.21206 13.044C4.96006 12.8573 4.83406 12.6053 4.83406 12.288C4.83406 11.6253 5.33806 11.294 6.34606 11.294H8.15206V12.162C8.01206 12.5353 7.76939 12.8247 7.42406 13.03Z" fill="#FFF04A"/>
<path fill-rule="evenodd" clip-rule="evenodd" d="M10.1317 0C11.2817 0 12.2569 0.860641 12.399 2.00175C12.4093 2.08422 14.7158 20.602 14.7139 20.6851C14.707 20.9738 14.5649 21.1317 14.3816 21.3354C14.3543 21.3656 14.3262 21.3969 14.2975 21.4297H2.28516C1.02507 21.4297 0 20.4046 0 19.1445V2.28516C0 1.02507 1.02507 0 2.28516 0H10.1317ZM9.02006 7.738C8.44139 7.206 7.60139 6.94 6.50006 6.94C5.88406 6.94 5.30073 7.01933 4.75006 7.178C4.41632 7.27416 4.11172 7.39604 3.83626 7.54362C3.53438 7.70537 3.45561 8.08603 3.61799 8.38758C3.82676 8.7753 4.3448 8.87286 4.75038 8.70134C4.84437 8.66159 4.94227 8.62514 5.04406 8.592C5.45473 8.46133 5.87006 8.396 6.29006 8.396C6.90606 8.396 7.36806 8.536 7.67606 8.816C7.99339 9.096 8.15206 9.49733 8.15206 10.02V10.132H6.22006C5.14673 10.132 4.35806 10.3373 3.85406 10.748C3.35939 11.1493 3.11206 11.686 3.11206 12.358C3.11206 12.7873 3.22406 13.1747 3.44806 13.52C3.68139 13.856 4.00806 14.122 4.42806 14.318C4.84806 14.5047 5.33806 14.598 5.89806 14.598C6.45806 14.598 6.93406 14.514 7.32606 14.346C7.72739 14.1687 8.03539 13.9167 8.25006 13.59V13.8C8.25006 14.1866 8.56346 14.5 8.95006 14.5H9.20206C9.58866 14.5 9.90206 14.1866 9.90206 13.8V10.118C9.90206 9.054 9.60806 8.26067 9.02006 7.738Z" fill="#FFF04A"/>
</svg>
