<svg version="1.1" xmlns="http://www.w3.org/2000/svg" width="150" height="50" viewBox="0 0 2951 1024"  class="text-white " style="fill:white">
<path d="M1096.878 366.335c10.36-15.318 12.751-34.747 5.776-51.873-75.116-184.445-256.187-314.462-467.626-314.462-162.813 0-307.62 77.093-399.91 196.766-1.959 2.539-1.706 6.135 0.559 8.405 2.572 2.577 6.765 2.506 9.296-0.111 73.541-76.009 176.617-123.264 290.731-123.264 223.393 0 404.489 181.095 404.489 404.489 0 12.297-0.548 24.467-1.623 36.486-0.824 9.225 10.188 15.115 16.962 8.799 53.085-49.485 100.555-104.918 141.347-165.235zM8.739 323.938c-11.278 17.899-11.785 40.609-0.677 58.614 94.973 153.94 265.169 256.54 459.328 256.54 147.801 0 281.716-59.454 379.133-155.754 2.727-2.694 2.706-7.088-0.005-9.796-2.48-2.48-6.413-2.725-9.216-0.618-74.985 56.363-168.212 89.763-269.239 89.763-219.658 0-402.439-157.897-441.028-366.382-1.509-8.15-11.695-11.368-17.271-5.235-37.407 41.149-71.245 85.601-101.025 132.867zM602.23 407.88c-21.093 23.755-43.839 46.011-68.060 66.584-14.348 12.189-34.84 13.919-50.825 3.971-27.888-17.359-53.92-37.419-77.732-59.814-23.8-22.384-45.381-47.099-64.378-73.782-5.708-8.018 4.337-17.486 12.672-12.248 34.523 21.697 71.918 39.243 111.486 51.941 14.218 4.563 29.653 3.407 43.036-3.216 83.152-41.158 153.065-105.019 201.639-183.482 2.397-3.87 7.283-5.413 11.431-3.541 4.306 1.944 6.368 6.899 4.65 11.299-29.234 74.861-71.465 143.214-123.918 202.287zM108.936 1024c-31.284 0-57.261-9.497-77.931-28.491s-31.005-43.388-31.005-73.183c0-29.793 10.242-54.189 30.726-73.181 20.67-18.994 46.647-28.491 77.931-28.491 17.316 0 33.102 3.22 47.359 9.66 1.975 0.892 3.199 2.885 3.199 5.051v35.656c0 4.466-4.947 7.243-8.965 5.294-12.767-6.196-26.445-9.292-41.034-9.292-16.387 0-30.074 5.214-41.060 15.641-10.987 10.429-16.48 23.649-16.48 39.664 0 16.387 5.587 29.703 16.76 39.945 11.359 10.242 25.605 15.362 42.736 15.362 15.952 0 29.87-3.162 41.757-9.485 4.152-2.209 9.639 0.588 9.639 5.292v34.788c0 2.138-1.192 4.106-3.125 5.019-15.205 7.17-32.040 10.754-50.505 10.754zM349.165 1014.395c0 3.145-2.55 5.694-5.694 5.694h-132.743c-3.145 0-5.694-2.55-5.694-5.694v-184.138c0-3.145 2.55-5.694 5.694-5.694h38.891c3.145 0 5.693 2.55 5.693 5.694v140.005c0 3.145 2.55 5.694 5.694 5.694h82.465c3.145 0 5.694 2.548 5.694 5.693v32.745zM537.298 1014.395c0 3.145-2.55 5.694-5.693 5.694h-139.448c-3.145 0-5.693-2.55-5.693-5.694v-184.138c0-3.145 2.548-5.694 5.693-5.694h137.213c3.145 0 5.694 2.55 5.694 5.694v32.745c0 3.143-2.55 5.693-5.694 5.693h-86.934c-3.145 0-5.693 2.55-5.693 5.694v15.148c0 3.145 2.548 5.693 5.693 5.693h66.824c3.145 0 5.693 2.55 5.693 5.694v31.069c0 3.145-2.548 5.694-5.693 5.694h-66.824c-3.145 0-5.693 2.55-5.693 5.694v26.879c0 3.145 2.548 5.694 5.693 5.694h89.17c3.143 0 5.693 2.548 5.693 5.693v32.745zM615.476 1016.504c-0.864 2.164-2.959 3.586-5.29 3.586h-40.663c-4.065 0-6.821-4.138-5.254-7.888l77.366-185.255c0.885-2.121 2.956-3.501 5.254-3.501h40.738c2.296 0 4.368 1.38 5.254 3.501l77.366 185.255c1.566 3.751-1.189 7.888-5.254 7.888h-41.502c-2.331 0-4.426-1.421-5.29-3.586l-13.621-34.169c-0.863-2.166-2.959-3.586-5.288-3.586h-64.906c-2.331 0-4.426 1.42-5.288 3.586l-13.621 34.169zM672.141 899.881c-1.885-4.832-8.721-4.832-10.608 0l-12.055 30.881c-1.456 3.733 1.296 7.765 5.304 7.765h24.113c4.007 0 6.76-4.032 5.304-7.765l-12.057-30.881zM856.614 1014.395c0 3.145-2.55 5.694-5.694 5.694h-38.891c-3.143 0-5.693-2.55-5.693-5.694v-184.138c0-3.145 2.55-5.694 5.693-5.694h86.203c21.601 0 38.641 5.679 51.117 17.038 12.849 11.174 19.274 25.605 19.274 43.296 0 12.663-3.351 23.835-10.056 33.518-5.377 7.767-12.429 13.914-21.159 18.448-3.327 1.727-4.584 6.026-2.355 9.042l48.093 65.107c2.777 3.759 0.094 9.077-4.58 9.077h-43.669c-1.802 0-3.499-0.854-4.573-2.303l-51.891-69.974c-1.074-1.449-2.77-2.303-4.573-2.303h-11.552c-3.145 0-5.693 2.55-5.693 5.694v63.191zM862.307 867.021c-3.145 0-5.693 2.548-5.693 5.693v26.043c0 3.145 2.548 5.693 5.693 5.693h33.132c6.89 0 12.29-1.583 16.2-4.749 4.098-3.351 6.146-7.913 6.146-13.687s-2.048-10.334-6.146-13.687c-3.91-3.537-9.31-5.306-16.2-5.306h-33.132zM1171.879 1014.395c0 3.145-2.55 5.694-5.694 5.694h-139.446c-3.145 0-5.694-2.55-5.694-5.694v-184.138c0-3.145 2.55-5.694 5.694-5.694h137.213c3.145 0 5.693 2.55 5.693 5.694v32.745c0 3.143-2.548 5.693-5.693 5.693h-86.934c-3.145 0-5.694 2.55-5.694 5.694v15.148c0 3.145 2.55 5.693 5.694 5.693h66.822c3.145 0 5.694 2.55 5.694 5.694v31.069c0 3.145-2.55 5.694-5.694 5.694h-66.822c-3.145 0-5.694 2.55-5.694 5.694v26.879c0 3.145 2.55 5.694 5.694 5.694h89.168c3.145 0 5.694 2.548 5.694 5.693v32.745zM1289.409 1020.090h-72.239c-3.143 0-5.693-2.55-5.693-5.694v-184.138c0-3.145 2.55-5.694 5.693-5.694h72.239c31.655 0 57.634 9.124 77.93 27.374 20.112 18.25 30.168 41.712 30.168 70.389 0 29.050-10.056 52.608-30.168 70.67-19.925 18.062-45.901 27.094-77.93 27.094zM1267.448 868.696c-3.145 0-5.693 2.55-5.693 5.694v95.872c0 3.145 2.548 5.694 5.693 5.694h18.328c18.994 0 33.705-4.657 44.134-13.966 10.427-9.311 15.641-22.533 15.641-39.665 0-17.13-5.214-30.352-15.641-39.664-10.429-9.31-25.14-13.966-44.134-13.966h-18.328zM1605.823 1014.395c0 3.145-2.55 5.694-5.694 5.694h-38.891c-3.143 0-5.693-2.55-5.693-5.694v-140.005c0-3.145-2.55-5.694-5.694-5.694h-47.269c-3.145 0-5.694-2.55-5.694-5.693v-32.745c0-3.145 2.55-5.694 5.694-5.694h156.485c3.145 0 5.694 2.55 5.694 5.694v32.745c0 3.143-2.55 5.693-5.694 5.693h-47.55c-3.143 0-5.693 2.55-5.693 5.694v140.005zM1859.324 994.393c-19.543 19.739-44.119 29.607-73.728 29.607s-54.194-9.869-73.747-29.607c-19.553-19.739-29.328-43.761-29.328-72.067 0-28.304 9.775-52.326 29.328-72.065s44.138-29.607 73.747-29.607c29.609 0 54.185 9.869 73.728 29.607 19.56 19.739 29.332 43.761 29.332 72.065 0 28.306-9.771 52.328-29.332 72.067zM1748.714 961.991c9.876 10.427 22.164 15.641 36.881 15.641 14.527 0 26.711-5.214 36.586-15.641 9.876-10.429 14.805-23.649 14.805-39.665 0-16.014-4.929-29.234-14.805-39.664-9.876-10.427-22.059-15.641-36.586-15.641-14.718 0-27.006 5.214-36.881 15.641-9.685 10.242-14.52 23.463-14.52 39.664s4.835 29.424 14.52 39.665zM2090.73 1020.090h-72.253c-3.141 0-5.693-2.55-5.693-5.694v-184.138c0-3.145 2.551-5.694 5.693-5.694h72.253c31.657 0 57.622 9.124 77.928 27.374 20.116 18.25 30.165 41.712 30.165 70.389 0 29.050-10.049 52.608-30.165 70.67-19.925 18.062-45.906 27.094-77.928 27.094zM2068.758 868.696c-3.141 0-5.693 2.55-5.693 5.694v95.872c0 3.145 2.551 5.694 5.693 5.694h18.328c19.005 0 33.705-4.657 44.136-13.966 10.431-9.311 15.638-22.533 15.638-39.665 0-17.13-5.207-30.352-15.638-39.664-10.431-9.31-25.131-13.966-44.136-13.966h-18.328zM2291.695 1014.395c0 3.145-2.551 5.694-5.693 5.694h-38.895c-3.141 0-5.693-2.55-5.693-5.694v-184.138c0-3.145 2.551-5.694 5.693-5.694h86.207c21.591 0 38.634 5.679 51.113 17.038 12.843 11.174 19.265 25.605 19.265 43.296 0 12.663-3.35 23.835-10.049 33.518-5.38 7.767-12.427 13.914-21.157 18.448-3.332 1.727-4.582 6.026-2.36 9.042l48.093 65.107c2.777 3.759 0.104 9.077-4.582 9.077h-43.668c-1.805 0-3.489-0.854-4.565-2.303l-51.894-69.974c-1.076-1.449-2.777-2.303-4.582-2.303h-11.542c-3.141 0-5.693 2.55-5.693 5.694v63.191zM2297.387 867.021c-3.141 0-5.693 2.548-5.693 5.693v26.043c0 3.145 2.551 5.693 5.693 5.693h33.132c6.89 0 12.288-1.583 16.193-4.749 4.096-3.351 6.144-7.913 6.144-13.687s-2.048-10.334-6.144-13.687c-3.905-3.537-9.303-5.306-16.193-5.306h-33.132zM2507.516 1014.395c0 3.145-2.551 5.694-5.693 5.694h-38.895c-3.141 0-5.693-2.55-5.693-5.694v-184.138c0-3.145 2.551-5.694 5.693-5.694h38.895c3.141 0 5.693 2.55 5.693 5.694v184.138zM2670.818 1017.662c-0.885 2.143-2.968 3.546-5.276 3.546h-40.11c-2.308 0-4.408-1.404-5.276-3.551l-75.255-185.257c-1.527-3.744 1.232-7.836 5.276-7.836h43.199c2.36 0 4.478 1.458 5.328 3.664l41.897 109.806c1.857 4.88 8.765 4.887 10.639 0.010l42.14-109.827c0.85-2.201 2.968-3.653 5.311-3.653h42.366c4.044 0 6.804 4.098 5.276 7.843l-75.516 185.255zM2933.274 1014.395c0 3.145-2.551 5.694-5.71 5.694h-139.438c-3.141 0-5.693-2.55-5.693-5.694v-184.138c0-3.145 2.551-5.694 5.693-5.694h137.216c3.141 0 5.693 2.55 5.693 5.694v32.745c0 3.143-2.551 5.693-5.693 5.693h-86.936c-3.141 0-5.693 2.55-5.693 5.694v15.148c0 3.145 2.551 5.693 5.693 5.693h66.82c3.141 0 5.693 2.55 5.693 5.694v31.069c0 3.145-2.551 5.694-5.693 5.694h-66.82c-3.141 0-5.693 2.55-5.693 5.694v26.879c0 3.145 2.551 5.694 5.693 5.694h89.157c3.159 0 5.71 2.548 5.71 5.693v32.745z"></path>
</svg>