<svg version="1.1" xmlns="http://www.w3.org/2000/svg" width="313px" height="33px" viewBox="0 0 7454 1024" class="text-white " style="fill:white">
<path d="M2436.929 691.307c-55.391 0-101.388-16.815-137.985-50.447-36.6-33.63-54.901-76.824-54.901-129.579 0-52.757 18.137-95.949 54.405-129.581 36.6-33.632 82.594-50.447 137.98-50.447 30.672 0 58.63 5.701 83.873 17.106 3.477 1.579 5.644 5.106 5.644 8.942v63.133c0 7.909-8.74 12.826-15.86 9.373-22.599-10.969-46.818-16.453-72.656-16.453-29.029 0-53.248 9.233-72.706 27.696-19.454 18.465-29.182 41.874-29.182 70.232 0 29.015 9.892 52.591 29.677 70.725 20.106 18.134 45.325 27.2 75.664 27.2 28.243 0 52.891-5.599 73.942-16.796 7.359-3.91 17.075 1.045 17.075 9.373v61.597c0 3.784-2.119 7.27-5.549 8.885-26.91 12.695-56.725 19.042-89.421 19.042zM2862.294 674.302c0 5.568-4.525 10.083-10.097 10.083h-235.020c-5.572 0-10.097-4.515-10.097-10.083v-326.044c0-5.568 4.525-10.083 10.097-10.083h68.846c5.572 0 10.097 4.515 10.097 10.083v247.901c0 5.568 4.501 10.080 10.073 10.080h146.003c5.572 0 10.097 4.515 10.097 10.083v57.98zM3195.404 674.302c0 5.568-4.501 10.083-10.073 10.083h-246.903c-5.572 0-10.097-4.515-10.097-10.083v-326.044c0-5.568 4.525-10.083 10.097-10.083h242.95c5.572 0 10.073 4.515 10.073 10.083v57.98c0 5.568-4.501 10.083-10.073 10.083h-153.933c-5.572 0-10.073 4.513-10.073 10.080v26.824c0 5.568 4.501 10.080 10.073 10.080h118.308c5.572 0 10.097 4.513 10.097 10.083v55.013c0 5.568-4.525 10.080-10.097 10.080h-118.308c-5.572 0-10.073 4.515-10.073 10.083v47.595c0 5.568 4.501 10.080 10.073 10.080h157.887c5.572 0 10.073 4.515 10.073 10.083v57.98zM3333.834 678.036c-1.524 3.834-5.239 6.349-9.359 6.349h-72.013c-7.192 0-12.074-7.325-9.287-13.967l136.978-328.023c1.572-3.753 5.239-6.196 9.311-6.196h72.132c4.048 0 7.716 2.443 9.287 6.196l137.002 328.023c2.762 6.642-2.119 13.967-9.311 13.967h-73.49c-4.12 0-7.835-2.515-9.359-6.349l-24.124-60.502c-1.524-3.834-5.239-6.349-9.359-6.349h-114.926c-4.12 0-7.835 2.515-9.359 6.349l-24.124 60.502zM3434.163 471.535c-3.334-8.554-15.431-8.554-18.765 0l-21.361 54.682c-2.572 6.611 2.31 13.748 9.407 13.748h42.675c7.097 0 11.978-7.137 9.407-13.748l-21.361-54.682zM3760.795 674.302c0 5.568-4.501 10.083-10.073 10.083h-68.87c-5.549 0-10.073-4.515-10.073-10.083v-326.044c0-5.568 4.525-10.083 10.073-10.083h152.647c38.245 0 68.417 10.057 90.517 30.17 22.742 19.785 34.125 45.337 34.125 76.662 0 22.421-5.953 42.203-17.813 59.349-9.526 13.75-22.004 24.638-37.459 32.663-5.906 3.058-8.121 10.671-4.167 16.010l85.135 115.283c4.929 6.656 0.167 16.072-8.097 16.072h-77.324c-3.191 0-6.192-1.512-8.097-4.077l-91.874-123.902c-1.905-2.562-4.906-4.075-8.097-4.075h-20.456c-5.572 0-10.097 4.513-10.097 10.080v111.89zM3770.892 413.353c-5.572 0-10.097 4.513-10.097 10.080v46.111c0 5.568 4.525 10.083 10.097 10.083h58.654c12.193 0 21.766-2.803 28.696-8.409 7.239-5.934 10.883-14.012 10.883-24.235 0-10.221-3.644-18.299-10.883-24.233-6.93-6.265-16.503-9.397-28.696-9.397h-58.654zM4319.018 674.302c0 5.568-4.501 10.083-10.073 10.083h-246.903c-5.572 0-10.097-4.515-10.097-10.083v-326.044c0-5.568 4.525-10.083 10.097-10.083h242.95c5.572 0 10.073 4.515 10.073 10.083v57.98c0 5.568-4.501 10.083-10.073 10.083h-153.933c-5.572 0-10.073 4.513-10.073 10.080v26.824c0 5.568 4.501 10.080 10.073 10.080h118.332c5.549 0 10.073 4.513 10.073 10.083v55.013c0 5.568-4.525 10.080-10.073 10.080h-118.332c-5.572 0-10.073 4.515-10.073 10.083v47.595c0 5.568 4.501 10.080 10.073 10.080h157.887c5.572 0 10.073 4.515 10.073 10.083v57.98zM4527.128 684.384h-127.905c-5.572 0-10.073-4.515-10.073-10.083v-326.044c0-5.568 4.501-10.083 10.073-10.083h127.905c56.058 0 102.043 16.158 137.978 48.471 35.626 32.313 53.415 73.857 53.415 124.635 0 51.436-17.789 93.146-53.415 125.128-35.268 31.985-81.277 47.976-137.978 47.976zM4488.24 416.32c-5.572 0-10.073 4.513-10.073 10.080v169.758c0 5.568 4.501 10.080 10.073 10.080h32.458c33.625 0 59.678-8.242 78.134-24.728 18.48-16.486 27.719-39.896 27.719-70.23s-9.24-53.746-27.719-70.232c-18.456-16.486-44.508-24.728-78.134-24.728h-32.458zM5087.375 674.302c0 5.568-4.501 10.083-10.073 10.083h-68.87c-5.549 0-10.073-4.515-10.073-10.083v-247.901c0-5.568-4.501-10.080-10.073-10.080h-83.706c-5.572 0-10.073-4.515-10.073-10.083v-57.98c0-5.568 4.501-10.083 10.073-10.083h277.075c5.572 0 10.097 4.515 10.097 10.083v57.98c0 5.568-4.525 10.083-10.097 10.083h-84.182c-5.572 0-10.097 4.513-10.097 10.080v247.901zM5340.398 581.511c17.479 18.465 39.245 27.696 65.298 27.696 25.719 0 47.318-9.23 64.774-27.696 17.479-18.465 26.219-41.874 26.219-70.23 0-28.358-8.74-51.767-26.219-70.232-17.456-18.463-39.055-27.696-64.774-27.696-26.052 0-47.818 9.233-65.298 27.696-17.146 18.134-25.719 41.546-25.719 70.232 0 28.684 8.573 52.095 25.719 70.23zM5536.268 638.883c-34.625 34.949-78.157 52.424-130.572 52.424-52.438 0-95.946-17.475-130.572-52.424-34.625-34.952-51.938-77.486-51.938-127.602 0-50.119 17.313-92.653 51.938-127.602 34.625-34.952 78.134-52.426 130.572-52.426 52.415 0 95.946 17.475 130.572 52.426 34.625 34.949 51.914 77.483 51.914 127.602 0 50.116-17.289 92.651-51.914 127.602zM5945.963 684.384h-127.905c-5.549 0-10.073-4.515-10.073-10.083v-326.044c0-5.568 4.525-10.083 10.073-10.083h127.905c56.058 0 102.067 16.158 138.002 48.471 35.602 32.313 53.415 73.857 53.415 124.635 0 51.436-17.813 93.146-53.415 125.128-35.292 31.985-81.277 47.976-138.002 47.976zM5907.099 416.32c-5.572 0-10.097 4.513-10.097 10.080v169.758c0 5.568 4.525 10.080 10.097 10.080h32.435c33.649 0 59.702-8.242 78.157-24.728s27.696-39.896 27.696-70.23c0-30.334-9.24-53.746-27.696-70.232s-44.508-24.728-78.157-24.728h-32.435zM6301.815 674.302c0 5.568-4.525 10.083-10.073 10.083h-68.87c-5.572 0-10.073-4.515-10.073-10.083v-326.044c0-5.568 4.501-10.083 10.073-10.083h152.647c38.245 0 68.417 10.057 90.493 30.17 22.766 19.785 34.125 45.337 34.125 76.662 0 22.421-5.93 42.203-17.789 59.349-9.526 13.75-22.028 24.638-37.483 32.663-5.882 3.058-8.097 10.671-4.167 16.010l85.159 115.283c4.929 6.656 0.167 16.072-8.097 16.072h-77.324c-3.191 0-6.215-1.512-8.097-4.077l-91.898-123.902c-1.905-2.562-4.906-4.075-8.097-4.075h-20.456c-5.549 0-10.073 4.513-10.073 10.080v111.89zM6311.888 413.353c-5.549 0-10.073 4.513-10.073 10.080v46.111c0 5.568 4.525 10.083 10.073 10.083h58.678c12.193 0 21.766-2.803 28.672-8.409 7.263-5.934 10.883-14.012 10.883-24.235 0-10.221-3.62-18.299-10.883-24.233-6.906-6.265-16.479-9.397-28.672-9.397h-58.678zM6683.958 674.302c0 5.568-4.501 10.083-10.073 10.083h-68.87c-5.549 0-10.073-4.515-10.073-10.083v-326.044c0-5.568 4.525-10.083 10.073-10.083h68.87c5.572 0 10.073 4.515 10.073 10.083v326.044zM6973.107 680.086c-1.548 3.796-5.239 6.277-9.335 6.277h-71.013c-4.096 0-7.811-2.486-9.335-6.289l-133.263-328.023c-2.691-6.627 2.191-13.876 9.335-13.876h76.49c4.191 0 7.93 2.581 9.43 6.489l74.18 194.427c3.31 8.642 15.527 8.654 18.837 0.019l74.633-194.465c1.5-3.896 5.239-6.47 9.407-6.47h75.014c7.168 0 12.050 7.258 9.335 13.888l-133.715 328.023zM7437.812 674.302c0 5.568-4.501 10.083-10.073 10.083h-246.903c-5.572 0-10.097-4.515-10.097-10.083v-326.044c0-5.568 4.525-10.083 10.097-10.083h242.95c5.572 0 10.073 4.515 10.073 10.083v57.98c0 5.568-4.501 10.083-10.073 10.083h-153.933c-5.572 0-10.097 4.513-10.097 10.080v26.824c0 5.568 4.525 10.080 10.097 10.080h118.308c5.572 0 10.097 4.513 10.097 10.083v55.013c0 5.568-4.525 10.080-10.097 10.080h-118.308c-5.572 0-10.097 4.515-10.097 10.083v47.595c0 5.568 4.525 10.080 10.097 10.080h157.887c5.572 0 10.073 4.515 10.073 10.083v57.98zM14.002 519.037c-18.070 28.679-18.882 65.069-1.084 93.917 152.173 246.653 424.873 411.046 735.966 411.046 236.82 0 451.389-95.263 607.477-249.561 4.367-4.317 4.334-11.354-0.010-15.696-3.975-3.972-10.276-4.365-14.767-0.988-120.146 90.307-269.522 143.827-431.395 143.827-351.954 0-644.815-252.997-706.646-587.047-2.417-13.060-18.74-18.215-27.673-8.387-59.936 65.931-114.154 137.156-161.87 212.89zM1757.496 586.969c16.601-24.545 20.43-55.672 9.254-83.115-120.356-295.532-410.481-503.853-749.263-503.853-260.87 0-492.892 123.523-640.764 315.273-3.139 4.070-2.736 9.83 0.895 13.469 4.122 4.127 10.838 4.015 14.896-0.179 117.829-121.787 282.986-197.503 465.83-197.503 357.936 0 648.102 290.165 648.102 648.101 0 19.704-0.881 39.203-2.6 58.458-1.322 14.781 16.322 24.219 27.176 14.1 85.056-79.289 161.116-168.105 226.475-264.752zM964.937 653.533c-33.797 38.064-70.244 73.723-109.049 106.689-22.99 19.53-55.827 22.304-81.437 6.361-44.685-27.815-86.395-59.956-124.549-95.839-38.133-35.864-72.711-75.464-103.15-118.215-9.147-12.85 6.949-28.017 20.301-19.625 55.317 34.764 115.233 62.878 178.631 83.223 22.783 7.309 47.514 5.461 68.956-5.153 133.232-65.946 245.255-168.267 323.082-293.988 3.839-6.201 11.669-8.673 18.315-5.672 6.899 3.115 10.204 11.054 7.449 18.103-46.842 119.946-114.505 229.469-198.549 324.117z"></path>
</svg>