<svg xmlns="http://www.w3.org/2000/svg" width="866" height="500" fill="none"><path fill="#000" d="M7 253c-9 14-9 32-1 46a422 422 0 0 0 656 79c2-2 2-5 0-8-2-1-5-2-7 0A351 351 0 0 1 99 154c-1-7-9-9-13-5-29 33-56 67-79 104Z"/><path fill="#000" d="M858 287c8-12 10-28 5-41a395 395 0 0 0-679-92c-2 2-1 5 0 7 2 2 6 1 8-1a316 316 0 0 1 542 249c0 7 8 12 14 7 41-39 78-82 110-129Z"/><path fill="#000" d="M471 319c-16 19-34 36-53 52a34 34 0 0 1-40 3 388 388 0 0 1-111-104c-4-6 3-14 10-10 27 17 56 31 87 41 11 3 23 3 34-3 65-32 120-82 158-143 1-3 5-4 8-3 4 2 5 5 4 9-23 58-56 112-97 158Z"/></svg>