<svg width="94px" height="94px" viewBox="0 0 94 94" fill="none" xmlns="http://www.w3.org/2000/svg">
<path d="M86.629 46.5716L79.4201 51.8078C79.3027 52.695 79.1493 53.5707 78.9598 54.4348C77.9068 59.2808 75.7628 63.8228 72.6909 67.7158L74.8938 74.4963L75.1794 75.3752C76.1306 74.4143 77.0329 73.4061 77.8827 72.3544C80.7907 68.7635 83.0432 64.6882 84.537 60.3156C85.9388 56.1802 86.6493 51.842 86.6401 47.4755C86.6401 47.1733 86.6373 46.8725 86.629 46.5716ZM75.0213 19.4219C69.1641 13.5322 61.5943 9.6459 53.3947 8.31885L55.8804 15.9672C60.099 17.1704 64.0343 19.2056 67.4544 21.9529C70.8745 24.7002 73.7103 28.104 75.7949 31.9639H83.5042C81.5094 27.2767 78.6292 23.0182 75.0213 19.4219ZM52.8776 79.6811C49.7076 80.2603 46.4696 80.3701 43.2676 80.0069C42.5227 79.9237 41.7861 79.8152 41.0578 79.6811L33.8323 84.9311C36.4576 85.8497 39.1728 86.4873 41.9326 86.8332C43.6027 87.0434 45.2844 87.1485 46.9677 87.1479C51.4399 87.1539 55.8809 86.404 60.1031 84.9298L52.8776 79.6811ZM18.9127 19.4219C15.3049 23.0182 12.4246 27.2767 10.4298 31.9639H18.1391C20.224 28.1037 23.0603 24.6997 26.4809 21.9524C29.9015 19.2051 33.8373 17.1701 38.0564 15.9672L40.5421 8.31885C32.342 9.64562 24.7716 13.532 18.9141 19.4219H18.9127ZM19.6156 65.4478C16.9045 61.3436 15.1593 56.6781 14.5111 51.8022L7.30226 46.5661C7.29395 46.8669 7.29117 47.1677 7.29117 47.47C7.27653 52.6452 8.28148 57.7727 10.2486 62.5595C12.2158 67.3463 15.1066 71.6988 18.7561 75.3683L19.5781 72.8369L21.2417 67.7075C20.6696 66.981 20.1281 66.2297 19.617 65.4533L19.6156 65.4478Z" fill="#DC182E"/>
<path d="M93.9344 36.1229L85.1895 42.4764L79.5055 46.6063L70.7579 52.9626L65.0753 57.091L64.9076 57.213L66.829 63.1271L66.933 63.4473L68.275 67.5758L70.3392 73.9321L71.347 77.0305L71.6811 78.0605L73.7454 84.4168L75.994 91.336L66.47 84.4168L63.7722 82.4566L57.7209 78.0605L52.0397 73.9321L51.8942 73.8267L46.9672 70.2472L41.8946 73.9321L36.2135 78.0605L27.4644 84.4168L17.9404 91.336L20.189 84.4168L21.9205 79.085L22.2532 78.0605L23.5952 73.9321L25.6594 67.5758L27.0014 63.4473L28.3919 59.1664L29.0268 57.213L28.8591 57.091L23.1765 52.9626L14.4288 46.6063L8.74492 42.4764L0 36.1229H35.8794V36.1215L37.2214 31.9917L39.287 25.6368L40.6289 21.5069L42.6932 15.152L44.0351 11.0222L46.1007 4.66728L46.9672 2L47.8336 4.66728L49.8993 11.0222L51.2412 15.152L53.3055 21.5069L54.6474 25.6368L56.713 31.9917L58.055 36.1215V36.1229H93.9344Z" fill="#DC182E"/>
<path d="M46.9672 2V57.213H29.0268L28.0023 56.4686L25.4113 54.586L22.0952 52.1765L21.427 51.6913H21.4256L16.9353 48.4279L16.6941 48.2519L2.14741 37.6825L2.01155 37.5841L0.131701 36.2186L0 36.1229H33.8318L35.8919 30.7717L36.5421 29.0832L38.1474 24.9131L38.1779 24.8327L40.7038 18.2699L41.4496 16.3318L42.9593 12.4113L43.0869 12.0813L45.5171 5.76802L45.7666 5.11784L46.1202 4.20148L46.3586 3.58041L46.9672 2Z" fill="#012563"/>
<path d="M56.7126 31.9916H46.9668V25.6367H54.647L56.7126 31.9916Z" fill="white"/>
<path d="M53.3051 21.5069H46.9668V15.152H51.2408L53.3051 21.5069Z" fill="white"/>
<path d="M49.8989 11.0221H46.9668V4.66724H47.8332L49.8989 11.0221Z" fill="white"/>
<path d="M93.934 36.1228L85.1891 42.4764H46.9668V36.1215H58.0546V36.1228H93.934Z" fill="white"/>
<path d="M79.5052 46.6062L70.7575 52.9625H46.9668V46.6062H79.5052Z" fill="white"/>
<path d="M64.9081 57.213L66.9336 63.4473H27.002L29.0274 57.213" fill="white"/>
<path d="M70.3377 73.9321H52.0383L46.9657 70.2473L41.8932 73.9321H23.5938L25.658 67.5758H68.2735L70.3377 73.9321Z" fill="white"/>
<path d="M22.2537 78.0605H36.2139L27.4649 84.4168H20.1895L22.2537 78.0605Z" fill="white"/>
<path d="M73.7471 84.4168H66.4717L57.7227 78.0605H71.6829L73.7471 84.4168Z" fill="white"/>
<path d="M44.7406 52.9625L45.2674 54.5859H46.974L45.5932 55.5896L46.1214 57.213L44.7406 56.2093L43.3584 57.213L43.8866 55.5896L42.5059 54.5859H44.2124L44.7406 52.9625Z" fill="white"/>
<path d="M35.8031 52.9625L36.3299 54.5859H38.0379L36.6571 55.5896L37.1839 57.213L35.8031 56.2093L34.4223 57.213L34.9491 55.5896L33.5684 54.5859H35.2749L35.8031 52.9625Z" fill="white"/>
<path d="M27.7156 55.5896L28.0012 56.4685L25.4102 54.5859H26.3348L26.8616 52.9625L27.3898 54.5859H29.0964L27.7156 55.5896Z" fill="white"/>
<path d="M40.2719 48.7122L40.7987 50.3355H42.5066L41.1245 51.3392L41.6526 52.9626L40.2719 51.9589L38.8911 52.9626L39.4179 51.3392L38.0371 50.3355H39.7437L40.2719 48.7122Z" fill="white"/>
<path d="M31.3324 48.7122L31.8606 50.3355H33.5672L32.1864 51.3392L32.7132 52.9626L31.3324 51.9589L29.9516 52.9626L30.4784 51.3392L29.0977 50.3355H30.8056L31.3324 48.7122Z" fill="white"/>
<path d="M23.2475 51.3392L23.7757 52.9626L22.3949 51.9589L22.0955 52.1766L21.4273 51.6914L21.5409 51.3392L20.1602 50.3355H21.8667L22.3949 48.7122L22.9217 50.3355H24.6283L23.2475 51.3392Z" fill="white"/>
<path d="M44.7406 44.4617L45.2674 46.0851H46.974L45.5932 47.0887L46.1214 48.7121L44.7406 47.7084L43.3584 48.7121L43.8866 47.0887L42.5059 46.0851H44.2124L44.7406 44.4617Z" fill="white"/>
<path d="M35.8031 44.4617L36.3299 46.0851H38.0379L36.6571 47.0887L37.1839 48.7121L35.8031 47.7084L34.4223 48.7121L34.9491 47.0887L33.5684 46.0851H35.2749L35.8031 44.4617Z" fill="white"/>
<path d="M26.8637 44.4617L27.3918 46.0851H29.0984L27.7176 47.0887L28.2444 48.7121L26.8637 47.7084L25.4829 48.7121L26.0111 47.0887L24.6289 46.0851H26.3369L26.8637 44.4617Z" fill="white"/>
<path d="M16.9363 48.4279L17.9262 47.7084L19.3069 48.7121L18.7787 47.0887L20.1609 46.0851H18.453L17.9262 44.4617L17.398 46.0851H15.6914L17.0722 47.0887L16.6951 48.2519L16.9363 48.4279Z" fill="white"/>
<path d="M40.2719 40.2112L40.7987 41.8346H42.5066L41.1245 42.8383L41.6526 44.4616L40.2719 43.4579L38.8911 44.4616L39.4179 42.8383L38.0371 41.8346H39.7437L40.2719 40.2112Z" fill="white"/>
<path d="M31.3324 40.2112L31.8606 41.8346H33.5672L32.1864 42.8383L32.7132 44.4616L31.3324 43.4579L29.9516 44.4616L30.4784 42.8383L29.0977 41.8346H30.8056L31.3324 40.2112Z" fill="white"/>
<path d="M22.3949 40.2112L22.9217 41.8346H24.6283L23.2475 42.8383L23.7757 44.4616L22.3949 43.4579L21.0127 44.4616L21.5409 42.8383L20.1602 41.8346H21.8667L22.3949 40.2112Z" fill="white"/>
<path d="M13.4555 40.2112L13.9823 41.8346H15.6902L14.3094 42.8383L14.8362 44.4616L13.4555 43.4579L12.0747 44.4616L12.6015 42.8383L11.2207 41.8346H12.9287L13.4555 40.2112Z" fill="white"/>
<path d="M44.7406 35.9607L45.2674 37.5841H46.974L45.5932 38.5878L46.1214 40.2112L44.7406 39.2075L43.3584 40.2112L43.8866 38.5878L42.5059 37.5841H44.2124L44.7406 35.9607Z" fill="white"/>
<path d="M35.8031 35.9607L36.3299 37.5841H38.0379L36.6571 38.5878L37.1839 40.2112L35.8031 39.2075L34.4223 40.2112L34.9491 38.5878L33.5684 37.5841H35.2749L35.8031 35.9607Z" fill="white"/>
<path d="M27.7176 38.5878L28.2458 40.2112L26.8637 39.2075L25.4829 40.2112L26.0111 38.5878L24.6289 37.5841H26.3369L26.811 36.1229H26.9163L27.3918 37.5841H29.0984L27.7176 38.5878Z" fill="white"/>
<path d="M18.7787 38.5878L19.3069 40.2112L17.9262 39.2075L16.5454 40.2112L17.0722 38.5878L15.6914 37.5841H17.398L17.8735 36.1229H17.9788L18.453 37.5841H20.1609L18.7787 38.5878Z" fill="white"/>
<path d="M9.84068 38.5878L10.3675 40.2112L8.9867 39.2075L7.60593 40.2112L8.13273 38.5878L6.75195 37.5841H8.4599L8.93402 36.1229H9.03938L9.51489 37.5841H11.2215L9.84068 38.5878Z" fill="white"/>
<path d="M40.2719 31.7102L40.7987 33.3336H42.5066L41.1245 34.3373L41.6526 35.9607L40.2719 34.957L38.8911 35.9607L39.4179 34.3373L38.0371 33.3336H39.7437L40.2719 31.7102Z" fill="white"/>
<path d="M44.7406 27.4597L45.2674 29.0831H46.974L45.5932 30.0868L46.1214 31.7102L44.7406 30.7065L43.3584 31.7102L43.8866 30.0868L42.5059 29.0831H44.2124L44.7406 27.4597Z" fill="white"/>
<path d="M36.6564 30.0868L37.1832 31.7102L35.8926 30.7717L36.5428 29.0831H38.0372L36.6564 30.0868Z" fill="white"/>
<path d="M40.2719 23.2094L40.7987 24.8327H42.5066L41.1245 25.8364L41.6526 27.4598L40.2719 26.4561L38.8911 27.4598L39.4179 25.8364L38.0371 24.8327H39.7437L40.2719 23.2094Z" fill="white"/>
<path d="M44.7406 18.9589L45.2674 20.5822H46.974L45.5932 21.5859L46.1214 23.2093L44.7406 22.2056L43.3584 23.2093L43.8866 21.5859L42.5059 20.5822H44.2124L44.7406 18.9589Z" fill="white"/>
<path d="M41.1232 17.3355L41.6514 18.9589L40.7031 18.2699L41.449 16.3318H42.5053L41.1232 17.3355Z" fill="white"/>
<path d="M44.7406 10.4579L45.2674 12.0813H46.974L45.5932 13.085L46.1214 14.7083L44.7406 13.7047L43.3584 14.7083L43.8866 13.085L42.5059 12.0813H44.2124L44.7406 10.4579Z" fill="white"/>
</svg>
