<svg version="1.1" xmlns="http://www.w3.org/2000/svg" width="139px" height="34px" viewBox="0 0 4186 1024" style="fill:white; opacity:0.7" class="">
<path d="M1095.782 362.927h422.189v78.77h-166.005v442.802h-91.284v-442.802h-165.268v-78.77h0.367zM1499.937 506.847h78.032v72.879h1.473c2.575-10.306 7.361-20.242 14.354-29.813s15.459-18.772 25.398-26.501c9.939-8.099 20.98-14.357 33.126-19.51 12.146-4.783 24.663-7.361 37.177-7.361 9.571 0 16.565 0.367 20.245 0.735 3.68 0.37 7.361 1.105 11.409 1.473v80.242c-5.888-1.105-11.776-1.84-18.034-2.575-6.258-0.738-12.146-1.105-18.037-1.105-13.987 0-27.235 2.946-39.752 8.466-12.514 5.521-23.188 13.987-32.392 24.66-9.201 11.044-16.562 24.293-22.082 40.49-5.524 16.194-8.099 34.599-8.099 55.579v179.625h-83.188v-377.284h0.37zM2103.588 884.498h-81.715v-52.637h-1.47c-10.306 19.14-25.398 34.232-45.643 45.643-20.245 11.409-40.858 17.3-61.838 17.3-49.691 0-85.763-12.146-107.848-36.81-22.085-24.66-33.126-61.838-33.126-111.529v-239.619h83.185v231.523c0 33.126 6.258 56.684 19.143 70.304 12.514 13.619 30.548 20.613 53.371 20.613 17.667 0 32.021-2.578 43.8-8.099s21.35-12.514 28.344-21.718c7.361-8.834 12.514-19.875 15.827-32.392 3.313-12.514 4.786-26.133 4.786-40.855v-219.010h83.185v377.284zM2245.301 763.398c2.575 24.293 11.776 41.225 27.606 51.164 16.194 9.571 35.334 14.725 57.787 14.725 7.731 0 16.565-0.738 26.504-1.84 9.936-1.105 19.507-3.683 27.973-6.993 8.834-3.313 15.827-8.466 21.718-15.092 5.521-6.626 8.096-15.092 7.728-25.766s-4.418-19.51-11.779-26.133c-7.361-6.996-16.562-12.149-27.973-16.565-11.412-4.048-24.293-7.731-39.017-10.674-14.722-2.946-29.446-6.258-44.538-9.571-15.459-3.313-30.551-7.728-44.905-12.514s-27.238-11.412-38.647-19.878c-11.412-8.096-20.613-18.772-27.238-31.654-6.993-12.884-10.306-28.711-10.306-47.851 0-20.613 5.153-37.545 15.092-51.531 9.936-13.987 22.82-25.031 37.912-33.494 15.459-8.466 32.392-14.357 51.161-18.037 18.772-3.313 36.81-5.153 53.742-5.153 19.507 0 38.28 2.208 55.947 6.258 17.67 4.048 33.864 10.674 48.218 20.242 14.357 9.204 26.136 21.35 35.704 36.072 9.571 14.725 15.459 32.762 18.037 53.742h-86.868c-4.048-19.878-12.881-33.497-27.238-40.123-14.354-6.993-30.919-10.306-49.321-10.306-5.891 0-12.884 0.37-20.983 1.473-8.096 1.105-15.459 2.946-22.82 5.521-6.993 2.578-12.881 6.626-18.034 11.779-4.786 5.153-7.364 11.779-7.364 20.245 0 10.306 3.68 18.405 10.674 24.66 6.993 6.258 16.197 11.412 27.606 15.83 11.412 4.048 24.296 7.728 39.017 10.674 14.725 2.946 29.816 6.255 45.276 9.568 15.089 3.313 29.813 7.731 44.535 12.517 14.725 4.783 27.609 11.409 39.017 19.875 11.412 8.466 20.613 18.772 27.606 31.286 6.993 12.517 10.674 28.344 10.674 46.749 0 22.453-5.15 41.225-15.456 57.052-10.306 15.459-23.558 28.341-39.755 37.912-16.194 9.571-34.599 16.932-54.474 21.347-19.878 4.418-39.752 6.626-59.262 6.626-23.925 0-46.011-2.575-66.253-8.096-20.245-5.524-37.912-13.619-52.637-24.296-14.725-11.041-26.501-24.66-34.967-40.855-8.466-16.197-12.884-35.704-13.619-58.157h83.923v-0.738zM2519.886 506.847h62.943v-113.369h83.185v113.369h75.089v62.205h-75.089v201.71c0 8.834 0.37 16.194 1.105 22.82 0.735 6.258 2.578 11.779 5.153 16.194 2.578 4.418 6.626 7.731 12.146 9.939s12.514 3.313 22.085 3.313c5.888 0 11.779 0 17.667-0.367 5.891-0.367 11.779-1.105 17.67-2.578v64.416c-9.204 1.102-18.405 1.84-26.871 2.946-8.834 1.102-17.667 1.47-26.871 1.47-22.085 0-39.752-2.208-53.004-6.255-13.249-4.051-23.922-10.306-31.286-18.405-7.728-8.099-12.514-18.034-15.459-30.184-2.575-12.146-4.415-26.133-4.786-41.592v-222.687h-62.94v-62.943h-0.738zM2799.995 506.847h78.77v51.164h1.473c11.779-22.085 27.973-37.545 48.956-47.116 20.98-9.568 43.433-14.354 68.093-14.354 29.807 0 55.588 5.153 77.664 15.827 22.076 10.306 40.478 24.663 55.206 43.065 14.728 18.405 25.419 39.752 32.768 64.048 7.349 24.293 11.053 50.426 11.053 78.032 0 25.398-3.313 50.059-9.939 73.617-6.626 23.925-16.565 44.905-29.816 63.31-13.252 18.402-30.178 32.759-50.808 43.8-20.6 11.044-44.544 16.565-72.508 16.565-12.146 0-24.293-1.105-36.439-3.313s-23.925-5.891-34.967-10.674c-11.044-4.786-21.718-11.044-30.919-18.772-9.571-7.731-17.3-16.565-23.925-26.504h-1.473v188.458h-83.188v-517.153zM3090.793 696.040c0-16.932-2.229-33.494-6.626-49.691-4.427-16.194-11.053-30.181-19.878-42.698-8.855-12.514-19.878-22.453-32.768-29.813-13.252-7.361-28.344-11.412-45.276-11.412-34.97 0-61.47 12.146-79.137 36.442-17.67 24.293-26.504 56.684-26.504 97.172 0 19.14 2.211 36.81 6.993 53.004 4.786 16.194 11.412 30.184 20.983 41.96 9.201 11.779 20.242 20.983 33.126 27.606 12.881 6.996 27.973 10.306 44.905 10.306 19.14 0 34.97-4.048 48.221-11.776 13.252-7.731 23.913-18.037 32.376-30.184 8.463-12.514 14.728-26.501 18.402-42.33 3.313-15.827 5.18-32.021 5.18-48.586v0zM3237.647 362.927h83.185v78.77h-83.185v-78.77zM3237.647 506.847h83.185v377.651h-83.185v-377.651zM3395.192 362.927h83.185v521.571h-83.185v-521.571zM3733.444 894.804c-30.178 0-57.043-5.153-80.595-15.092s-43.43-23.925-59.994-41.225c-16.203-17.667-28.732-38.647-37.195-62.943-8.463-24.293-12.89-51.161-12.89-80.239 0-28.711 4.427-55.212 12.89-79.508 8.463-24.293 20.992-45.273 37.195-62.94 16.173-17.667 36.442-31.286 59.994-41.225s50.417-15.092 80.595-15.092c30.178 0 57.043 5.153 80.625 15.092 23.552 9.939 43.43 23.925 59.994 41.225 16.203 17.667 28.702 38.647 37.165 62.94 8.463 24.296 12.89 50.796 12.89 79.508 0 29.079-4.427 55.947-12.89 80.239-8.463 24.296-20.962 45.276-37.165 62.943s-36.442 31.286-59.994 41.225c-23.582 9.939-50.447 15.092-80.625 15.092v0zM3733.444 828.916c18.402 0 34.605-4.048 48.218-11.776 13.613-7.731 24.666-18.037 33.491-30.551 8.855-12.514 15.089-26.871 19.516-42.698 4.066-15.827 6.264-32.024 6.264-48.586 0-16.197-2.199-32.024-6.264-48.218-4.036-16.197-10.662-30.184-19.516-42.698-8.824-12.517-19.878-22.453-33.491-30.184-13.613-7.728-29.816-11.779-48.218-11.779s-34.605 4.051-48.218 11.779c-13.613 7.731-24.666 18.037-33.491 30.184-8.824 12.514-15.089 26.501-19.516 42.698-4.036 16.194-6.234 32.021-6.234 48.218 0 16.562 2.199 32.759 6.234 48.586 4.066 15.827 10.692 30.184 19.516 42.698s19.878 22.82 33.491 30.551c13.613 8.096 29.816 11.776 48.218 11.776v0zM3948.393 506.847h62.946v-113.369h83.185v113.369h75.113v62.205h-75.113v201.71c0 8.834 0.392 16.194 1.114 22.82 0.753 6.258 2.59 11.779 5.15 16.194 2.59 4.418 6.626 7.731 12.137 9.939 5.542 2.208 12.529 3.313 22.106 3.313 5.873 0 11.776 0 17.649-0.367 5.903-0.367 11.776-1.105 17.679-2.578v64.416c-9.216 1.102-18.402 1.84-26.865 2.946-8.824 1.102-17.679 1.47-26.865 1.47-22.106 0-39.755-2.208-53.007-6.255-13.252-4.051-23.944-10.306-31.292-18.405-7.74-8.099-12.529-18.034-15.45-30.184-2.59-12.146-4.427-26.133-4.789-41.592v-222.687h-62.946v-62.943h-0.753zM617.27 362.927h381.332l-308.45 224.163 117.784 362.559-308.45-224.163-308.82 224.163 118.155-362.559-308.82-224.53 381.332 0.367 118.155-362.927 117.784 362.927zM690.146 587.089l26.504 82.080-217.166 56.317 190.663-138.397z"></path>
</svg>