<svg version="1.1" xmlns="http://www.w3.org/2000/svg" viewBox="0 0 1024 1024" width="50" height="50px"  style="fill:white; opacity:0.7" class="">
<path d="M618.375 697.682l87.9 15.497 4.837-27.439-53.866-9.978 21.541-119.443-33.87-6.451-26.542 147.814zM617.341 360.862c-35.811-6.314-73.562 11.964-83.21 63.971-9.568 51.542 19.954 82.643 55.3 88.877 35.346 6.232 73.562-11.966 83.21-63.973 9.568-51.542-20.036-82.178-55.3-88.875zM591.999 488.268c-22.79-4.020-33.298-26.014-27.804-57.174 5.413-30.695 23.112-46.756 45.9-42.738s33.378 25.547 27.967 56.242c-5.413 30.695-23.276 47.688-46.064 43.67zM405.869 325.491l-26.927 147.268 32.557 5.741 11.069-62.788 58.137 10.252-11.536 62.704 32.473 6.205 26.46-147.35-32.090-5.659-10.551 57.123-57.588-10.633 10.086-57.205-32.090-5.659zM750.408 568.949l-27.007 147.73 88.283 16.046 4.919-27.904-54.331-10.060 21.541-119.443-33.405-6.369zM430.877 945.152c142.234 25.559 281.090-19.491 379.699-110.959l-696.581-126.183c60.284 120.445 174.65 211.583 316.882 237.142zM614.32 856.654l11.954-16.116 5.72 19.231 19.040 6.236-16.331 11.026-0.106 19.642-15.567-12.335-18.766 5.802 6.617-18.495-11.575-15.948 19.014 0.956zM436.744 841.167l16.986-22.901 7.664 27.247 26.702 9.023-23.443 16.007-0.188 28.26-22.352-17.369-26.946 8.677 9.488-26.62-16.554-23.060 28.643 0.735zM272.267 794.9l11.952-16.114 5.255 19.149 19.042 6.234-16.331 11.028-0.106 19.642-15.569-12.337-18.766 5.802 6.619-18.493-11.493-16.413 19.397 1.501zM305.838 435.89c-16.744-2.951-29.987-14.877-35.105-32.084l-27.191 10.070c7.006 22.815 24.3 41.689 55.843 47.731 40.927 7.217 62.755-10.514 66.937-34.232 5.331-30.231-20.632-43.44-44.982-54.927-18.084-8.944-28.508-15.096-26.458-26.724 1.559-8.835 10.066-13.57 23.937-10.646 14.418 2.544 26.892 13.375 32.586 27.326l25.276-12.806c-7.444-17.617-22.575-35.152-52.724-40.948-31.625-5.577-55.89 6.93-61.192 34.288-5.413 30.695 20.797 42.51 45.529 54.544 18.084 8.942 27.961 15.479 25.993 26.64-1.886 10.697-13.566 14.393-28.449 11.768zM224.008 600.809c-16.742-2.951-29.137-14.248-34.255-31.455l-0.301-1.012-28.286 10.836 0.301 1.014c7.91 25.85 27.555 42.263 56.307 47.813 43.719 7.707 63.166-12.841 67.486-34.617 5.577-31.625-22.329-44.698-44.9-55.392-17.236-8.313-27.66-14.467-25.692-25.629 1.559-8.837 9.902-12.64 22.841-9.88 13.488 2.378 26.046 12.745 31.273 26.614l0.301 1.012 26.835-13.49-0.383-0.547c-6.375-15.512-21.096-35.369-53.187-41.028-32.557-5.741-56.519 7.776-61.74 34.669-5.33 30.231 19.402 42.265 43.204 54.135l2.245 0.874c18.084 8.944 27.030 15.317 25.225 25.549-2.105 9.218-11.926 13.242-27.273 10.535zM759.001 389.677l-53.404-9.896-26.46 147.347 32.090 5.659 9.185-52.089 20.929 3.69c29.299 5.167 61.854 2.755 68.825-36.778 7.352-38.984-19.54-52.359-51.165-57.934zM744.675 460.040l-21.858-3.854 7.625-43.252 21.86 3.854c20.464 3.609 26.044 12.745 23.667 26.231-1.995 14.035-11.295 20.548-31.293 17.021zM366.963 499.898l-43.719-7.709-26.46 147.347 30.695 5.413 17.277-95.259c0.274 12.036 1.069 18.409 2.302 27.738l9.722 72.688 29.764 5.247 34.216-63.5 0.082-0.465c3.801-7.961 7.52-15.458 11.403-23.884l-16.947 93.399 32.555 5.741 26.462-147.35-45.113-7.954-48.847 100.243-13.091-110.684-0.301-1.012zM639.59 17.118c-12.857-3.226-26.182-6.535-39.67-8.913-13.486-2.378-27.056-4.291-40.241-5.657-258.693-25.953-498.617 148.974-549.957 407.505-0.492 2.789-0.984 5.581-1.476 8.37-0.492 2.791-0.984 5.581-1.476 8.372-44.882 273.576 138.009 533.606 411.696 583.303 276.476 50.188 541.485-133.741 591.675-410.218 47.892-263.455-116.204-515.855-370.551-582.762zM8.794 426.193c0.492-2.791 0.984-5.581 1.476-8.372 0.492-2.789 0.984-5.581 1.476-8.37l-2.952 16.742zM425.218 977.242c-258.339-46.991-430.395-295.041-383.486-552.915s294.492-430.011 552.915-383.485c257.872 46.909 429.928 294.958 383.019 552.832-46.524 258.421-294.492 430.010-552.448 383.568zM464.597 669.606l31.16 5.495 16.902-30.587 48.368 8.528 5.040 33.976-0.082 0.467 34.415 6.068-25.080-156.918 0.082-0.465-31.625-5.577-79.18 139.012zM547.832 578.304l7.066 49.68-32.092-5.659 25.027-44.022zM588.986 72.933c-144.558-25.969-285.686 21.077-384.787 115.336l704.488 127.578c-59.873-122.77-175.143-216.945-319.701-242.914zM411.208 178.255l-15.567-12.336-19.313 6.185 6.699-18.959-11.491-16.413 20.025 0.654 11.952-16.115 5.72 19.231 19.042 6.235-16.331 11.027-0.737 20.49zM590.811 201.292l-22.354-17.368-26.946 8.676 9.49-26.62-16.556-23.060 28.561 1.2 16.986-22.9 7.664 27.247 26.702 9.024-23.443 16.007-0.104 27.795zM752.798 239.925l-15.569-12.337-19.313 6.187 6.699-18.96-11.491-16.412 20.025 0.654 11.952-16.115 5.72 19.231 19.042 6.234-16.331 11.028-0.735 20.49z"></path>
</svg>