<svg width="95" height="55" viewBox="0 0 52 52" fill="none" xmlns="http://www.w3.org/2000/svg">
<path d="M52 28.1425V0H0V52H52V36.8285C51.8842 36.8285 52 28.1425 52 28.1425Z" fill="#006FCF"/>
<path d="M45.6303 25.2527H49.5679V16.1035H45.2829V17.3775L44.4722 16.1035H40.7661V17.7249L40.0713 16.1035H33.2383C33.0067 16.1035 32.7751 16.2193 32.5434 16.2193C32.3118 16.2193 32.196 16.3351 31.9644 16.451C31.7327 16.5668 31.6169 16.5668 31.3853 16.6826V16.1035H11.8129L11.2339 17.6091L10.6548 16.1035H6.02227V17.7249L5.32739 16.1035H1.62138L0 20.0412V25.2527H2.6637L3.12695 23.9788H4.05345L4.5167 25.2527H24.8998V24.0946L25.7105 25.2527H31.3853V24.5579C31.5011 24.6737 31.7327 24.6737 31.8486 24.7895C31.9644 24.9053 32.196 24.9053 32.3118 25.0211C32.5434 25.1369 32.7751 25.1369 33.0067 25.1369H37.1759L37.6392 23.863H38.5657L39.029 25.1369H44.7038V23.9788L45.6303 25.2527V25.2527ZM52 36.834V28.2639H20.1514L19.3408 29.422L18.5301 28.2639H9.26503V37.4131H18.5301L19.3408 36.255L20.1514 37.4131H25.9421V35.4443H25.7105C26.5212 35.4443 27.216 35.3284 27.7951 35.0968V37.5289H31.9644V36.3708L32.7751 37.5289H50.0312C50.7261 37.2973 51.4209 37.1815 52 36.834V36.834Z" fill="white"/>
<path d="M50.0312 34.6339H46.9042V35.9078H49.9154C51.1893 35.9078 52 35.0971 52 33.939C52 32.7809 51.3051 32.2018 50.147 32.2018H48.7572C48.4098 32.2018 48.1782 31.9702 48.1782 31.6227C48.1782 31.2753 48.4098 31.0437 48.7572 31.0437H51.4209L52 29.7697H48.8731C47.5991 29.7697 46.7884 30.5804 46.7884 31.6227C46.7884 32.7809 47.4833 33.3599 48.6414 33.3599H50.0312C50.3786 33.3599 50.6102 33.5916 50.6102 33.939C50.7261 34.4022 50.4944 34.6339 50.0312 34.6339V34.6339ZM44.3563 34.6339H41.2294V35.9078H44.2405C45.5145 35.9078 46.3252 35.0971 46.3252 33.939C46.3252 32.7809 45.6303 32.2018 44.4722 32.2018H43.0824C42.735 32.2018 42.5033 31.9702 42.5033 31.6227C42.5033 31.2753 42.735 31.0437 43.0824 31.0437H45.7461L46.3252 29.7697H43.1982C41.9243 29.7697 41.1136 30.5804 41.1136 31.6227C41.1136 32.7809 41.8085 33.3599 42.9666 33.3599H44.3563C44.7038 33.3599 44.9354 33.5916 44.9354 33.939C45.0512 34.4022 44.7038 34.6339 44.3563 34.6339V34.6339ZM40.3029 30.9279V29.6539H35.4388V35.792H40.3029V34.5181H36.8285V33.2441H40.1871V31.9702H36.8285V30.812H40.3029V30.9279V30.9279ZM32.4276 30.9279C33.0067 30.9279 33.2383 31.2753 33.2383 31.6227C33.2383 31.9702 33.0067 32.3176 32.4276 32.3176H30.6904V30.812L32.4276 30.9279V30.9279ZM30.6904 33.5916H31.3853L33.2383 35.792H34.9755L32.8909 33.4757C33.9332 33.2441 34.5122 32.5492 34.5122 31.6227C34.5122 30.4646 33.7016 29.6539 32.4276 29.6539H29.1849V35.792H30.5746L30.6904 33.5916ZM26.9844 31.7385C26.9844 32.2018 26.7528 32.5492 26.1737 32.5492H24.3207V30.9279H26.0579C26.637 30.9279 26.9844 31.2753 26.9844 31.7385V31.7385ZM22.931 29.6539V35.792H24.3207V33.7074H26.1737C27.4477 33.7074 28.3742 32.8967 28.3742 31.6227C28.3742 30.4646 27.5635 29.5381 26.2895 29.5381L22.931 29.6539V29.6539ZM20.8463 35.792H22.5835L20.1514 32.6651L22.5835 29.6539H20.8463L19.3408 31.6227L17.8352 29.6539H16.098L18.5301 32.6651L16.098 35.6762H17.8352L19.3408 33.7074L20.8463 35.792V35.792ZM15.6347 30.9279V29.6539H10.7706V35.792H15.6347V34.5181H12.1604V33.2441H15.5189V31.9702H12.1604V30.812H15.6347V30.9279V30.9279ZM43.7773 20.0414L46.2094 23.7475H47.9466V17.6094H46.5568V21.6628L46.2094 21.0838L44.0089 17.6094H42.1559V23.7475H43.5457V19.5782L43.7773 20.0414V20.0414ZM37.755 19.9256L38.2183 18.6517L38.6815 19.9256L39.2606 21.3154H37.1759L37.755 19.9256V19.9256ZM40.1871 23.7475H41.6927L39.029 17.6094H37.1759L34.5122 23.7475H36.0178L36.5969 22.4735H39.608L40.1871 23.7475V23.7475ZM33.7016 23.7475L34.2806 22.4735H33.9332C32.8909 22.4735 32.3118 21.7786 32.3118 20.7363V20.6205C32.3118 19.5782 32.8909 18.8833 33.9332 18.8833H35.4388V17.6094H33.8174C31.9644 17.6094 30.9221 18.8833 30.9221 20.6205V20.7363C30.9221 22.5893 31.9644 23.7475 33.7016 23.7475ZM28.49 23.7475H29.8797V17.7252H28.49V23.7475ZM25.4788 18.8833C26.0579 18.8833 26.2895 19.2308 26.2895 19.5782C26.2895 19.9256 26.0579 20.2731 25.4788 20.2731H23.7416V18.7675L25.4788 18.8833V18.8833ZM23.7416 21.547H24.4365L26.2895 23.7475H28.0267L25.9421 21.4312C26.9844 21.1996 27.5635 20.5047 27.5635 19.5782C27.5635 18.4201 26.7528 17.6094 25.4788 17.6094H22.2361V23.7475H23.6258L23.7416 21.547ZM21.1938 18.8833V17.6094H16.3296V23.7475H21.1938V22.4735H17.7194V21.1996H21.078V19.9256H17.7194V18.7675H21.1938V18.8833V18.8833ZM10.6548 23.7475H11.9287L13.6659 18.7675V23.7475H15.0557V17.6094H12.7394L11.3497 21.7786L9.95991 17.6094H7.64365V23.7475H9.03341V18.7675L10.6548 23.7475ZM3.12695 19.9256L3.5902 18.6517L4.05345 19.9256L4.63252 21.3154H2.54788L3.12695 19.9256V19.9256ZM5.55902 23.7475H7.06459L4.40089 17.6094H2.6637L0 23.7475H1.50557L2.08463 22.4735H5.09577L5.55902 23.7475Z" fill="#006FCF"/>
</svg>
