<svg width="68" height="42" viewBox="0 0 68 42" fill="none" xmlns="http://www.w3.org/2000/svg">
<path fill-rule="evenodd" clip-rule="evenodd" d="M24.6426 37.456H42.9092V4.4834H24.6426V37.456Z" fill="#FF5F00"/>
<path fill-rule="evenodd" clip-rule="evenodd" d="M25.8024 20.9697C25.8024 14.2804 28.9205 8.32266 33.776 4.48345C30.2247 1.67525 25.7444 0 20.8745 0C9.34567 0 0.00012207 9.38862 0.00012207 20.9697C0.00012207 32.5509 9.34567 41.9395 20.8745 41.9395C25.7444 41.9395 30.2247 40.2642 33.776 37.456C28.9205 33.6162 25.8024 27.6591 25.8024 20.9697Z" fill="#EB001B"/>
<path fill-rule="evenodd" clip-rule="evenodd" d="M66.9 33.9638V33.15H66.6884L66.4454 33.7098L66.2019 33.15H65.9902V33.9638H66.1392V33.3498L66.3677 33.8793H66.5225L66.751 33.3486V33.9638H66.9ZM65.5599 33.9638V33.2886H65.8313V33.1512H65.1412V33.2886H65.412V33.9638H65.5599ZM67.5518 20.9695C67.5518 32.5506 58.2057 41.9392 46.6775 41.9392C41.8075 41.9392 37.3267 40.264 33.776 37.4558C38.6314 33.6166 41.7495 27.6589 41.7495 20.9695C41.7495 14.2807 38.6314 8.323 33.776 4.4832C37.3267 1.67501 41.8075 -0.000244141 46.6775 -0.000244141C58.2057 -0.000244141 67.5518 9.38838 67.5518 20.9695Z" fill="#F79E1B"/>
</svg>
