<svg width="148" height="36" viewBox="0 0 148 36" fill="none" xmlns="http://www.w3.org/2000/svg">
<path fill-rule="evenodd" clip-rule="evenodd" d="M114.231 15.8593C113.789 18.7637 111.571 18.7637 109.425 18.7637H108.205L109.061 13.3411C109.113 13.0135 109.395 12.772 109.727 12.772H110.287C111.747 12.772 113.127 12.772 113.838 13.604C114.263 14.1019 114.392 14.8397 114.231 15.8593ZM113.297 8.28223H105.206C104.653 8.28223 104.182 8.68477 104.096 9.23132L100.824 29.9779C100.76 30.387 101.076 30.7571 101.491 30.7571H105.642C106.029 30.7571 106.359 30.4753 106.419 30.0928L107.347 24.2113C107.433 23.6648 107.904 23.2622 108.457 23.2622H111.017C116.347 23.2622 119.423 20.683 120.227 15.5713C120.588 13.3357 120.241 11.579 119.194 10.3491C118.044 8.99714 116.004 8.28223 113.297 8.28223Z" fill="#2790C3"/>
<path fill-rule="evenodd" clip-rule="evenodd" d="M56.5232 15.8593C56.081 18.7637 53.8628 18.7637 51.7177 18.7637H50.497L51.353 13.3411C51.405 13.0135 51.6875 12.772 52.0192 12.772H52.5788C54.0392 12.772 55.4188 12.772 56.1297 13.604C56.5555 14.1019 56.6842 14.8397 56.5232 15.8593ZM55.5897 8.28223H47.4984C46.9453 8.28223 46.4744 8.68477 46.3882 9.23132L43.1163 29.9779C43.0519 30.387 43.3682 30.7571 43.7824 30.7571H47.6457C48.1988 30.7571 48.6701 30.3546 48.7562 29.8084L49.6392 24.2113C49.725 23.6648 50.1962 23.2622 50.7493 23.2622H53.3097C58.6388 23.2622 61.7148 20.683 62.5188 15.5713C62.8806 13.3357 62.5333 11.579 61.4864 10.3491C60.3355 8.99714 58.2962 8.28223 55.5897 8.28223Z" fill="#27346A"/>
<path fill-rule="evenodd" clip-rule="evenodd" d="M74.3735 23.3073C73.9993 25.5211 72.2418 27.0073 70.0004 27.0073C68.8767 27.0073 67.9771 26.6459 67.3989 25.9615C66.8258 25.283 66.6102 24.3164 66.7916 23.24C67.1407 21.0462 68.9262 19.512 71.1335 19.512C72.2338 19.512 73.1269 19.8771 73.7167 20.5677C74.3102 21.2633 74.5433 22.2364 74.3735 23.3073ZM79.7727 15.7666H75.8985C75.5665 15.7666 75.284 16.0077 75.2324 16.336L75.0618 17.4193L74.7909 17.0266C73.952 15.8088 72.0822 15.4019 70.2149 15.4019C65.9345 15.4019 62.2782 18.6455 61.5665 23.1949C61.196 25.4644 61.7218 27.6331 63.0087 29.147C64.1909 30.5379 65.8782 31.1168 67.8884 31.1168C71.3386 31.1168 73.252 28.9004 73.252 28.9004L73.0789 29.9771C73.0142 30.3866 73.3305 30.7571 73.7451 30.7571H77.2342C77.7873 30.7571 78.2582 30.355 78.3444 29.8084L80.4389 16.5459C80.5036 16.1364 80.1873 15.7666 79.7727 15.7666Z" fill="#27346A"/>
<path fill-rule="evenodd" clip-rule="evenodd" d="M132.081 23.3073C131.707 25.5211 129.95 27.0073 127.708 27.0073C126.584 27.0073 125.685 26.6459 125.106 25.9615C124.533 25.283 124.318 24.3164 124.5 23.24C124.848 21.0462 126.634 19.512 128.841 19.512C129.941 19.512 130.835 19.8771 131.424 20.5677C132.018 21.2633 132.251 22.2364 132.081 23.3073ZM137.48 15.7666H133.606C133.274 15.7666 132.992 16.0077 132.94 16.336L132.769 17.4193L132.499 17.0266C131.66 15.8088 129.79 15.4019 127.922 15.4019C123.642 15.4019 119.986 18.6455 119.274 23.1949C118.904 25.4644 119.43 27.6331 120.716 29.147C121.899 30.5379 123.586 31.1168 125.596 31.1168C129.046 31.1168 130.96 28.9004 130.96 28.9004L130.787 29.9771C130.722 30.3866 131.038 30.7571 131.453 30.7571H134.942C135.495 30.7571 135.966 30.355 136.052 29.8084L138.146 16.5459C138.211 16.1364 137.895 15.7666 137.48 15.7666Z" fill="#2790C3"/>
<mask id="mask0_1397:732" style="mask-type:alpha" maskUnits="userSpaceOnUse" x="0" y="0" width="148" height="36">
<path d="M0 36H147.125V0.298584H0V36Z" fill="white"/>
</mask>
<g mask="url(#mask0_1397:732)">
<path fill-rule="evenodd" clip-rule="evenodd" d="M100.407 15.7666H96.513C96.1406 15.7666 95.7923 15.9513 95.5832 16.2593L90.2115 24.171L87.9348 16.5684C87.7926 16.0928 87.3548 15.7666 86.8581 15.7666H83.0301C82.5679 15.7666 82.2425 16.2211 82.3915 16.6586L86.6795 29.2448L82.6465 34.9357C82.3297 35.3822 82.6494 36.0001 83.1966 36.0001H87.0872C87.4559 36.0001 87.801 35.8193 88.0112 35.5161L100.962 16.8255C101.272 16.3782 100.952 15.7666 100.407 15.7666Z" fill="#27346A"/>
<path fill-rule="evenodd" clip-rule="evenodd" d="M142.047 8.85204L138.726 29.9779C138.662 30.3873 138.978 30.7571 139.392 30.7571H142.732C143.285 30.7571 143.756 30.3546 143.842 29.8084L147.117 9.06186C147.181 8.65241 146.865 8.28223 146.45 8.28223H142.713C142.381 8.28223 142.098 8.52404 142.047 8.85204Z" fill="#2790C3"/>
<path fill-rule="evenodd" clip-rule="evenodd" d="M15.307 34.5321L16.3947 27.6354L16.4648 27.2532C16.5172 26.9209 16.6874 26.6169 16.9437 26.398C17.2001 26.179 17.527 26.0583 17.8641 26.0583H18.7277C20.1674 26.0583 21.4899 25.9045 22.659 25.6012C23.9063 25.278 25.0157 24.7743 25.9561 24.1056C26.9532 23.3965 27.7907 22.4798 28.4456 21.3816C29.1365 20.223 29.6437 18.8281 29.9536 17.2361C30.2274 15.8303 30.2787 14.5718 30.1067 13.495C29.9245 12.3576 29.4863 11.387 28.8045 10.6096C28.391 10.1387 27.8619 9.73068 27.2321 9.39686L27.2172 9.38886L27.2168 9.37068C27.4368 7.96741 27.4285 6.79686 27.1917 5.78923C26.9539 4.77941 26.4725 3.87068 25.7187 3.01177C24.1568 1.23214 21.3161 0.32959 17.2757 0.32959H6.17939C5.80848 0.32959 5.44848 0.462317 5.16629 0.703408C4.88411 0.944499 4.6972 1.27941 4.63902 1.64595L0.018659 30.9452C-0.0235229 31.2125 0.0532044 31.4841 0.229204 31.6892C0.405204 31.8954 0.661204 32.0136 0.93175 32.0136H7.81575L7.80957 32.0463L7.33684 35.0441C7.30048 35.2772 7.36738 35.5136 7.52048 35.6925C7.67357 35.8718 7.89648 35.975 8.13211 35.975H13.9059C14.2299 35.975 14.5437 35.859 14.7899 35.6485C15.0361 35.438 15.1997 35.146 15.2503 34.8263L15.307 34.5321Z" fill="#27346A"/>
<path fill-rule="evenodd" clip-rule="evenodd" d="M11.3481 9.40586C11.4211 8.94149 11.719 8.56149 12.1201 8.36913C12.3026 8.28186 12.5062 8.23313 12.7197 8.23313H21.4175C22.4481 8.23313 23.4088 8.30077 24.2873 8.44222C24.5382 8.48258 24.7822 8.52913 25.0197 8.58186C25.2571 8.63458 25.4873 8.69313 25.7102 8.75858C25.8219 8.79095 25.9313 8.82513 26.0393 8.86113C26.4706 9.0044 26.8721 9.17313 27.2415 9.36877C27.6771 6.59167 27.2386 4.70186 25.7364 2.99022C24.0826 1.10586 21.095 0.298584 17.2724 0.298584H6.17606C5.39497 0.298584 4.72988 0.866948 4.60806 1.63858L-0.0123042 30.9379C-0.103577 31.516 0.343332 32.0386 0.928423 32.0386H7.7786L11.3481 9.40586Z" fill="#27346A"/>
</g>
<path fill-rule="evenodd" clip-rule="evenodd" d="M27.2441 9.3689C27.211 9.5809 27.1742 9.79653 27.1306 10.0187C25.6677 17.5318 20.6612 20.1293 14.267 20.1293H11.011C10.2299 20.1293 9.57024 20.698 9.44843 21.4696L7.30843 35.0373C7.22879 35.5427 7.6197 36.0002 8.13134 36.0002H13.9055C14.5888 36.0002 15.1706 35.5031 15.2772 34.8278L15.3339 34.5344L16.4215 27.6369L16.4917 27.2558C16.5982 26.5805 17.1801 26.0834 17.8633 26.0834H18.727C24.3208 26.0834 28.7008 23.8107 29.9808 17.2384C30.5153 14.4922 30.239 12.1998 28.8248 10.5882C28.3972 10.1009 27.8648 9.69762 27.2441 9.3689Z" fill="#2790C3"/>
<path fill-rule="evenodd" clip-rule="evenodd" d="M25.7126 8.75861C25.4897 8.69315 25.2595 8.63461 25.0221 8.58188C24.7846 8.52915 24.5406 8.48261 24.2897 8.44225C23.4112 8.30079 22.4504 8.23315 21.4199 8.23315H12.7221C12.5086 8.23315 12.305 8.28188 12.1224 8.36915C11.7213 8.56152 11.4235 8.94152 11.3504 9.40588L9.5017 21.1273L9.44824 21.4695C9.57006 20.6979 10.2297 20.1292 11.0108 20.1292H14.2668C20.661 20.1292 25.6675 17.5317 27.1304 10.0186C27.1741 9.79643 27.2108 9.58079 27.2439 9.36879C26.8744 9.17315 26.473 9.00443 26.0417 8.86115C25.9337 8.82515 25.8242 8.79097 25.7126 8.75861Z" fill="#1F264F"/>
</svg>
