<svg width="93" height="30" viewBox="0 0 93 30" fill="none" xmlns="http://www.w3.org/2000/svg">
<path fill-rule="evenodd" clip-rule="evenodd" d="M48.046 9.59085C47.993 13.7698 51.7704 16.1018 54.6157 17.4884C57.5393 18.9111 58.5212 19.8234 58.5101 21.0955C58.4878 23.0427 56.1778 23.9018 54.016 23.9352C50.2443 23.9937 48.0516 22.917 46.308 22.1025L44.9496 28.4599C46.6987 29.2663 49.9374 29.9693 53.2963 30C61.1798 30 66.3377 26.1084 66.3658 20.0745C66.3964 12.4169 55.7735 11.9928 55.8459 8.56987C55.871 7.53217 56.8613 6.42456 59.0317 6.14284C60.1057 6.0007 63.0711 5.89177 66.4327 7.43997L67.7521 1.289C65.9445 0.630565 63.6206 0 60.7279 0C53.3074 0 48.088 3.94457 48.046 9.59085V9.59085ZM80.4312 0.530002C78.9917 0.530002 77.7782 1.36982 77.2371 2.65859L65.9751 29.548H73.8531L75.4208 25.2156H85.0479L85.9574 29.548H92.9008L86.8416 0.530002H80.4312ZM81.533 8.36897L83.8065 19.2653H77.5801L81.533 8.36897ZM38.4944 0.530002L32.2847 29.548H39.7915L45.9984 0.530002H38.4944ZM27.3888 0.530002L19.5749 20.2807L16.4142 3.48703C16.0433 1.61253 14.5787 0.530002 12.9522 0.530002H0.178601L0 1.37261C2.62236 1.94163 5.60169 2.85949 7.40652 3.84145C8.51111 4.44113 8.82651 4.96555 9.18905 6.39111L15.1756 29.548H23.1095L35.2724 0.530002H27.3888Z" fill="#1A1F71"/>
</svg>
