<svg width="160" height="160" viewBox="0 0 160 160" fill="none" xmlns="http://www.w3.org/2000/svg">
<path d="M75.393 98.272L34.801 103.04C32.673 103.296 30.737 101.776 30.465 99.632L25.121 60.736C24.865 58.64 26.321 56.7039 28.417 56.384L83.297 48.752" fill="#09B8F2" fill-opacity="0.5"/>
<path d="M98.3206 37.52L135.329 42.512C137.793 42.848 139.425 45.184 138.817 47.536L120.561 119.344C120.033 121.424 117.937 122.752 115.777 122.384L84.8326 117.12C82.5606 116.736 81.0406 114.64 81.4246 112.432L93.6166 40.88C93.9846 38.704 96.0806 37.216 98.3206 37.52Z" fill="#09B8F2" fill-opacity="0.5"/>
<path fill-rule="evenodd" clip-rule="evenodd" d="M90.7482 36.5745C91.0126 34.9281 92.5536 33.8 94.2155 34.0305L130.327 39.0224C130.483 39.0443 130.635 39.0775 130.781 39.1209L130.781 39.1213L130.786 39.1222C131.255 39.2621 131.67 39.5073 132.01 39.8262L116.596 108.424L79.7466 102.687L90.7473 36.5801L90.7482 36.5745ZM79.4183 104.66L78.8433 108.116C78.5658 109.781 79.6884 111.365 81.3562 111.655L110.235 116.69L110.236 116.688L110.272 116.696L111.548 116.919C113.146 117.197 114.692 116.191 115.078 114.625L116.132 110.376L79.4183 104.66ZM116.616 108.427L132.902 42.8181C133.178 41.6875 132.794 40.5611 132.01 39.8262L116.598 108.424L116.616 108.427ZM109.882 118.658L81.0135 113.625C78.2652 113.147 76.4119 110.539 76.8704 107.788L79.3508 92.8818L38.5024 97.6811L38.5001 97.6814C35.7384 97.9993 33.2093 96.0361 32.8661 93.2652L27.2814 52.6511C26.9428 49.9225 28.8349 47.4136 31.5622 46.9955L31.576 46.9935L88.3 39.1029L88.7735 36.2574L88.7739 36.2546C89.2148 33.5186 91.7691 31.6722 94.4902 32.0495L130.603 37.0416C130.835 37.0741 131.061 37.1216 131.28 37.1829L132.538 37.4558C136.25 38.2805 138.578 41.9929 137.677 45.6927L120.83 115.4L120.83 115.402C120.109 118.415 117.098 120.279 114.087 119.6L114.349 118.431L114.347 118.432L114.085 119.599L109.882 118.658ZM115.396 117.738C117.023 117.71 118.49 116.59 118.885 114.936L118.885 114.933L135.733 45.2211L135.734 45.2192C136.084 43.7804 135.741 42.3355 134.92 41.2322C135.033 41.8958 135.015 42.5942 134.844 43.2938L134.843 43.2969L117.02 115.103L117.02 115.104C116.757 116.168 116.174 117.073 115.396 117.738ZM79.6926 90.8279L80.0861 88.4635L41.6286 93.2804C39.1865 93.5831 36.9068 91.9441 36.6093 89.4843L36.6087 89.4788L32.1929 55.5767L32.1919 55.5683C31.9198 53.1612 33.6726 51.0109 36.0679 50.6285L36.0812 50.6264L87.5052 43.1224L87.5082 43.122C87.5501 43.116 87.592 43.1105 87.6339 43.1054L87.956 41.17L31.8589 48.9734C30.2076 49.23 29.0638 50.7478 29.2654 52.3987L34.8495 93.0072L34.8504 93.0146C35.0549 94.6871 36.5869 95.8877 38.27 95.6947L38.2714 95.6945L79.6926 90.8279ZM41.3821 91.2956L80.4286 86.405L87.2895 45.1751L36.3771 52.6044C34.9707 52.8321 34.0393 54.0676 34.1784 55.336L38.5946 89.2411C38.7478 90.5221 39.9542 91.4724 41.3821 91.2956ZM111.632 38.224C110.672 38.224 110.672 39.712 111.632 39.712C112.592 39.712 112.592 38.224 111.632 38.224ZM64.7376 44.6559C63.7776 44.6559 63.7776 46.1439 64.7376 46.1439C65.6976 46.1599 65.6976 44.6559 64.7376 44.6559ZM96.2722 109.72C95.658 109.72 95.1602 110.218 95.1602 110.832C95.1602 111.446 95.658 111.944 96.2722 111.944C96.8863 111.944 97.3842 111.446 97.3842 110.832C97.3842 110.218 96.8863 109.72 96.2722 109.72ZM93.1602 110.832C93.1602 109.113 94.5535 107.72 96.2722 107.72C97.9909 107.72 99.3842 109.113 99.3842 110.832C99.3842 112.551 97.9909 113.944 96.2722 113.944C94.5535 113.944 93.1602 112.551 93.1602 110.832ZM109.015 45.9703C108.91 45.428 108.386 45.0734 107.844 45.1781C107.301 45.2829 106.947 45.8074 107.052 46.3497L114.892 86.9257C114.996 87.4679 115.521 87.8226 116.063 87.7178C116.605 87.613 116.96 87.0885 116.855 86.5463L109.015 45.9703ZM117.603 46.6182C118.145 46.5133 118.67 46.8678 118.775 47.41L121.815 63.122C121.92 63.6643 121.565 64.1889 121.023 64.2938C120.481 64.3987 119.956 64.0442 119.851 63.5019L116.811 47.7899C116.706 47.2477 117.061 46.7231 117.603 46.6182Z" fill="black"/>
</svg>
