<svg width="160" height="160" viewBox="0 0 160 160" fill="none" xmlns="http://www.w3.org/2000/svg">
<path d="M99.6936 90.7967C99.7004 90.7778 99.6815 90.7709 99.6815 90.7709C99.4765 89.0879 99.4285 87.5047 99.4667 86.0385C99.7454 76.809 89.8892 66.3077 87.8799 64.0993C85.8707 61.8908 82.1774 55.2753 77.9469 47.2425C73.7354 39.2165 75.1945 37.3217 73.7599 34.3563C72.3254 31.391 69.479 32.9116 69.479 32.9116L68.825 31.8165C66.4273 32.2772 62.5972 35.5646 58.859 39.486C57.305 30.5787 51.6574 30.4188 51.6574 30.4188L52.4349 46.8521C50.549 49.2143 49.0728 51.2745 48.3642 52.519C46.4998 55.7684 50.9622 68.3682 50.9622 68.3682C50.9622 68.3682 49.1047 78.6984 48.9215 81.5705C48.7382 84.4427 52.1055 87.1649 52.8557 89.7105C55.6765 93.8219 62.6319 95.9359 68.9327 101.631C73.0522 105.355 76.8958 110.609 79.1281 118.947C81.4983 127.378 109.785 119.701 118.902 124.551C119.657 124.953 120.358 123.963 119.755 123.38C105.17 109.534 100.677 98.8534 99.6936 90.7967ZM58.9941 56.0939L59.3044 52.753L60.9168 50.8494L63.0696 48.2838L65.2482 45.706L68.0116 51.0406C68.5825 51.6551 68.9261 52.4232 68.9872 53.2604L69.3269 57.1158L58.9941 56.0939Z" fill="#FCE700"/>
<path d="M66.481 19.6971C66.8949 19.7144 67.2163 20.064 67.199 20.4779L66.8959 27.7037C66.8785 28.1175 66.529 28.439 66.1151 28.4216C65.7013 28.4042 65.3799 28.0547 65.3972 27.6408L65.7003 20.415C65.7176 20.0011 66.0672 19.6797 66.481 19.6971Z" fill="black"/>
<path d="M75.9426 24.1753C76.2534 24.4492 76.2833 24.9231 76.0094 25.2339L71.8551 29.9482C71.5813 30.2589 71.1073 30.2889 70.7966 30.015C70.4858 29.7411 70.4559 29.2672 70.7297 28.9565L74.8841 24.2422C75.1579 23.9314 75.6318 23.9015 75.9426 24.1753Z" fill="black"/>
<path d="M56.5439 22.1007C56.8991 21.8875 57.3598 22.0026 57.573 22.3577L61.4246 28.7732C61.6378 29.1283 61.5228 29.5891 61.1676 29.8023C60.8125 30.0155 60.3518 29.9004 60.1386 29.5453L56.287 23.1298C56.0738 22.7747 56.1888 22.3139 56.5439 22.1007Z" fill="black"/>
<path fill-rule="evenodd" clip-rule="evenodd" d="M49.8024 90.9829C49.7549 90.8352 49.7005 90.6884 49.6404 90.5426C49.6715 90.464 49.6898 90.3788 49.6926 90.2894L49.6928 90.2824L49.6936 90.2586L49.6971 90.1623C49.7004 90.0769 49.7055 89.9499 49.7131 89.7851C49.7283 89.4555 49.753 88.9745 49.7914 88.3724C49.8683 87.1678 49.9998 85.4801 50.2178 83.5501C50.6554 79.6772 51.4365 74.8787 52.8038 71.0493L52.8057 71.0437C52.882 70.8246 52.954 70.6171 53.0222 70.4202C53.3099 69.5903 53.5318 68.9501 53.736 68.4369C53.9896 67.7996 54.1862 67.4383 54.3863 67.2032C54.7438 66.7832 55.2032 66.6358 56.8518 66.3492C57.6432 66.2116 58.6577 66.0074 59.7467 65.7882L59.7899 65.7795C60.9002 65.556 62.092 65.3163 63.2319 65.1093C64.374 64.9019 65.4489 64.73 66.3263 64.64C66.7652 64.595 67.142 64.5718 67.4459 64.5729C67.7642 64.5741 67.9464 64.6025 68.027 64.6283C68.3343 64.7268 69.0426 65.0632 70.0093 65.5874C70.9535 66.0993 72.0897 66.7602 73.2254 67.4716C73.5888 67.6992 73.9512 67.9314 74.3064 68.165C74.4033 68.2839 74.5331 68.3682 74.6762 68.4104C75.2978 68.8268 75.89 69.2441 76.4183 69.6442C77.1637 70.2086 77.7387 70.7071 78.0965 71.0998C78.0286 71.1782 77.9382 71.2709 77.8224 71.3735C77.393 71.7539 76.6845 72.2066 75.7047 72.5098C73.808 73.0969 70.8273 73.1424 66.8246 70.8754C66.7465 70.8312 66.6681 70.7861 66.5893 70.7402C66.5374 70.7099 66.483 70.6865 66.4273 70.6697C66.1879 70.5978 65.9235 70.6491 65.7268 70.8155C64.4017 71.9372 62.6337 73.4076 60.2965 74.7308C59.971 74.9151 59.8311 75.3111 59.9685 75.6591C60.134 76.0778 60.164 76.6687 60.0598 77.392C59.9576 78.1023 59.7374 78.8653 59.48 79.5798C59.2238 80.291 58.9382 80.934 58.7159 81.4003L58.3441 82.1379L58.3433 82.1394C58.1706 82.4537 58.2445 82.8464 58.5197 83.0763C58.794 83.3055 59.1917 83.3091 59.4701 83.0855L59.5354 83.0378C59.588 83.001 59.6702 82.9466 59.7781 82.8845C59.9955 82.7595 60.3088 82.6085 60.6885 82.5045C61.4315 82.3012 62.4375 82.2716 63.542 83.0132C64.6258 83.7411 64.7436 85.0256 64.4268 86.4265C64.2852 87.0523 64.0679 87.6368 63.8728 88.0873L63.8377 88.1538C63.7082 88.4009 63.6075 88.6077 63.5387 88.754L63.4305 88.9914L63.4297 88.9933C63.2726 89.3581 63.427 89.7825 63.782 89.9606C64.1371 90.1387 64.5694 90.0092 64.7679 89.6652L64.8998 89.4212C64.977 89.2722 65.0824 89.0597 65.1984 88.799L65.2244 88.7404C65.4583 88.3026 65.7796 87.751 66.169 87.2038C66.5947 86.6057 67.0831 86.0392 67.6061 85.6294C68.1311 85.2182 68.6356 85.0071 69.1123 85.0099C69.5142 85.0122 69.9739 84.9892 70.4928 84.9633C71.9631 84.8898 73.9081 84.7927 76.3561 85.1796C77.9446 85.4306 79.7283 85.8876 81.6711 86.697C81.7252 86.7249 81.7755 86.7503 81.8215 86.7731C81.9218 86.8229 82.002 86.8608 82.0585 86.8868L82.0988 86.9051L82.1252 86.9169L82.1444 86.9254L82.1503 86.9279L82.1524 86.9288L82.1538 86.9294C82.2094 86.9532 82.2663 86.9698 82.3235 86.9796C84.1893 87.8186 86.193 88.9858 88.3045 90.604C88.6332 90.856 89.104 90.7937 89.356 90.465C89.6079 90.1362 89.5457 89.6654 89.2169 89.4135C86.7744 87.5415 84.4562 86.2384 82.3068 85.3369C82.1565 85.2584 81.9736 85.1584 81.767 85.0366C81.7371 85.019 81.7068 85.001 81.676 84.9825C81.0877 84.6291 80.3377 84.1151 79.6094 83.4384C78.1141 82.0491 76.7722 80.0399 76.9834 77.348C76.9861 77.3133 76.9891 77.2784 76.9924 77.2433L76.998 77.1853L77.0041 77.1271C77.0488 76.7153 76.7513 76.3452 76.3395 76.3005C75.9277 76.2557 75.5576 76.5533 75.5128 76.9651C75.1796 80.0311 76.5022 82.3595 78.0147 83.9676C77.5262 83.8597 77.0512 83.7708 76.5903 83.698C73.9666 83.2833 71.7597 83.3944 70.2875 83.4685C69.8218 83.4919 69.4295 83.5117 69.1209 83.5099C68.1848 83.5045 67.3582 83.9182 66.6811 84.4486C66.4693 84.6146 66.2666 84.7961 66.0738 84.9875C66.0336 83.8148 65.6195 82.6015 64.3781 81.7678C63.0527 80.878 61.7728 80.7757 60.7547 80.9541C60.6811 80.967 60.6088 80.9814 60.538 80.997C60.6561 80.7133 60.7762 80.4076 60.8912 80.0881C61.1677 79.3206 61.4226 78.453 61.5445 77.6058C61.6329 76.9922 61.658 76.3465 61.544 75.7412C62.4482 75.2041 63.2654 74.6509 64.0006 74.1127C64.6016 73.6727 65.1476 73.2428 65.6415 72.8399C65.8707 72.6529 66.0886 72.4718 66.2955 72.2981C70.5073 74.6233 73.841 74.6568 76.1482 73.9427C77.3309 73.5767 78.2275 73.0186 78.8171 72.4963C79.1086 72.238 79.3436 71.972 79.4988 71.7233C79.5742 71.6024 79.651 71.4536 79.6926 71.2893C79.7253 71.1603 79.7838 70.8305 79.562 70.5271C79.1152 69.8986 78.2744 69.1681 77.3239 68.4483C76.7527 68.0158 76.1163 67.5685 75.4542 67.1262L75.1103 66.3735C74.8222 65.7599 74.4189 64.9277 73.9591 64.0558C73.5004 63.1862 72.9792 62.2651 72.4549 61.4791C71.9484 60.7198 71.3793 59.9928 70.8092 59.6049C70.4827 59.3828 70.0125 59.2139 69.5179 59.0747C69.0017 58.9293 68.3767 58.7946 67.6851 58.6694C67.3913 58.6162 67.0832 58.5643 66.7637 58.5138C66.7379 58.4327 66.7075 58.3351 66.6741 58.2236C66.5677 57.8693 66.431 57.3781 66.3088 56.8299C66.0549 55.6905 65.9012 54.4591 66.0924 53.668C66.1612 53.3832 66.0579 53.0843 65.8278 52.9029C64.6523 51.9761 63.788 50.3887 63.2104 48.9442C62.927 48.2356 62.7231 47.5886 62.5903 47.1192L62.4 46.3764C62.3943 46.3494 62.3872 46.3231 62.3788 46.2974C66.2109 43.648 67.3391 40.7257 67.4188 38.3755C67.4586 37.2023 67.2359 36.2081 67.0037 35.5068C66.9307 35.2861 66.8563 35.0933 66.7881 34.9317C66.9545 34.8963 67.1381 34.8715 67.3292 34.8693C67.6679 34.8653 68.0169 34.9319 68.3451 35.1239C68.6695 35.3138 69.0238 35.6556 69.3315 36.2842C69.7997 37.2525 69.9143 38.0401 70.0729 39.1303C70.137 39.5714 70.2084 40.0621 70.3133 40.6342C70.6669 42.5626 71.3821 45.1147 73.5294 49.1918C75.646 53.2109 77.6327 56.8839 79.3438 59.8315C81.0425 62.7575 82.5049 65.0319 83.5713 66.2039C83.6038 66.2397 83.6384 66.2776 83.6749 66.3176C83.7046 66.3501 83.7355 66.384 83.7677 66.4192C84.9209 67.6818 87.6624 70.6835 90.1517 74.4495C92.8133 78.4762 95.0951 83.2437 94.9631 87.6158C94.8231 92.2504 94.7256 96.6644 97.5787 102.359C100.41 108.01 106.118 114.87 117.414 124.565C117.728 124.835 118.201 124.799 118.471 124.484C118.741 124.17 118.705 123.697 118.391 123.427C107.143 113.774 101.617 107.07 98.9198 101.687C96.2442 96.3468 96.3237 92.2559 96.4624 87.661C96.6091 82.8037 94.1022 77.7058 91.403 73.6223C88.8469 69.7552 86.0363 66.6786 84.8787 65.4114L84.8751 65.4074C84.8039 65.3295 84.7389 65.2584 84.6808 65.1944C83.7378 64.158 82.349 62.0204 80.6411 59.0784C78.9456 56.1579 76.9704 52.5066 74.8566 48.4929C72.7733 44.5372 72.1124 42.1288 71.7887 40.3637C71.7082 39.9248 71.6472 39.5046 71.5878 39.0953C71.4162 37.9132 71.2577 36.8214 70.6811 35.6296L70.6797 35.6268C70.2609 34.7703 69.7169 34.1888 69.1027 33.8293C68.4919 33.4719 67.8615 33.363 67.3117 33.3694C66.8138 33.3752 66.3712 33.4753 66.0416 33.5788L65.715 33.0319C65.5531 32.7609 65.2388 32.6202 64.9289 32.6801C64.1364 32.8331 63.2691 33.2345 62.378 33.7777C61.4781 34.3261 60.51 35.0465 59.5098 35.8811C58.2536 36.9292 56.9295 38.172 55.6046 39.5107C54.719 35.5365 52.9889 33.4401 51.3272 32.3571C50.4418 31.7801 49.6051 31.5105 48.9819 31.386C48.6704 31.3237 48.4115 31.2975 48.225 31.2871C48.1316 31.282 48.0561 31.2807 48.0009 31.281L47.898 31.2836C47.4875 31.3073 47.1725 31.6572 47.192 32.068L47.9501 48.0223C47.9525 48.0729 47.9599 48.1221 47.9717 48.1695C46.1407 50.4785 44.6946 52.5041 43.9786 53.7527C43.6682 54.2939 43.5191 54.9697 43.4584 55.6755C43.3967 56.3914 43.4214 57.1986 43.502 58.0443C43.6633 59.7356 44.056 61.6559 44.5012 63.4496C44.9474 65.2476 45.4518 66.94 45.8439 68.1815C46.0402 68.8027 46.2088 69.3122 46.3285 69.667C46.3801 69.8199 46.4226 69.9442 46.4544 70.0363L46.4086 70.2934C46.3573 70.5821 46.2839 70.9975 46.1953 71.5049C46.0181 72.5197 45.7798 73.903 45.5357 75.3765C45.0508 78.3033 44.5326 81.6471 44.438 83.1296C44.3283 84.8495 45.2782 86.4449 46.1811 87.7882C46.3664 88.0638 46.5479 88.3257 46.7246 88.5809C47.0062 88.9874 47.2762 89.3772 47.5308 89.7777C47.9373 90.4171 48.2437 90.9942 48.4013 91.5293C48.4238 91.6057 48.4584 91.678 48.5036 91.7435C49.7692 93.5759 52.0217 95.2213 54.5693 96.8953C55.335 97.3985 56.131 97.9063 56.9465 98.4267L56.9496 98.4286C58.8972 99.6713 60.9564 100.985 62.9803 102.475C68.7001 106.685 73.8896 112.128 74.646 120.62C74.6828 121.033 75.0471 121.338 75.4596 121.301C75.8722 121.264 76.1769 120.9 76.1401 120.487C75.6007 114.43 72.9516 109.846 69.5201 106.188C70.823 106.652 72.3426 107.062 74.0112 107.275C74.4221 107.327 74.7977 107.037 74.8502 106.626C74.9026 106.215 74.6121 105.839 74.2012 105.787C71.697 105.467 69.5393 104.665 68.0042 103.94C67.2381 103.578 66.6311 103.237 66.2183 102.988C66.0121 102.864 65.8546 102.763 65.7504 102.694L65.6015 102.593C65.5943 102.588 65.587 102.583 65.5796 102.578C65.0148 102.126 64.4433 101.689 63.8695 101.267C61.8033 99.746 59.6746 98.3877 57.7108 97.1346L57.7096 97.1338C56.9044 96.6201 56.127 96.124 55.3931 95.6417C52.8713 93.9847 50.8934 92.5086 49.8024 90.9829ZM65.0812 34.8961C65.1052 34.9364 65.1325 34.9736 65.1625 35.0076C65.1765 35.0431 65.1935 35.0779 65.2134 35.1119L65.3183 35.3178C65.3886 35.4669 65.4848 35.6913 65.5797 35.9782C65.7702 36.5535 65.9521 37.3683 65.9197 38.3246C65.8563 40.1922 64.9713 42.7495 61.3384 45.1914C61.2225 45.2693 61.1306 45.378 61.0732 45.5053C60.1371 47.5795 58.4483 50.3194 54.5085 54.0224C54.3556 54.1661 54.2699 54.3673 54.2722 54.5771C54.2808 55.3568 54.2971 56.1438 54.3113 56.7352L54.3242 57.2221L54.2032 57.2112L54.1986 57.2108C52.5593 57.0722 51.2539 57.2261 50.2647 57.8325C49.2464 58.4568 48.7073 59.4687 48.4005 60.7022C48.1141 61.8535 47.6562 64.0715 47.273 65.9845L47.0633 67.0521C46.7173 65.9251 46.3173 64.5399 45.957 63.0883C45.5196 61.3258 45.1464 59.4869 44.9953 57.9019C44.9197 57.1094 44.9016 56.3991 44.9528 55.8041C45.0049 55.1989 45.1243 54.7701 45.2799 54.4989C46.5215 52.3337 50.2558 47.4618 54.3669 42.9861C56.4167 40.7546 58.54 38.6437 60.4707 37.0328C61.4362 36.2272 62.3425 35.5559 63.1587 35.0585C63.7496 34.6983 64.2715 34.4428 64.7184 34.2886L65.0812 34.8961ZM47.975 70.0319C47.9731 70.0573 47.9699 70.0826 47.9654 70.1078L47.8855 70.5556C47.8345 70.8431 47.7613 71.2571 47.6729 71.763C47.4962 72.775 47.2587 74.1537 47.0155 75.6217C46.5258 78.5781 46.0236 81.8354 45.935 83.2251C45.8614 84.3773 46.5036 85.5791 47.426 86.9513C47.585 87.1879 47.7554 87.4341 47.9283 87.6839L47.929 87.6849C48.0518 87.8624 48.176 88.0419 48.2981 88.2208C48.3766 87.0014 48.5093 85.3112 48.7273 83.3817C49.1684 79.4769 49.9643 74.5421 51.3901 70.5476C51.4629 70.3385 51.5325 70.1376 51.5994 69.9449C51.8881 69.1119 52.1244 68.43 52.3423 67.8824C52.6098 67.2099 52.8791 66.6596 53.2441 66.2309C54.0168 65.3231 55.0843 65.134 56.5948 64.8714C57.3664 64.7372 58.3649 64.5362 59.4675 64.3143L59.4939 64.309C60.6019 64.0859 61.8076 63.8434 62.9638 63.6335C64.1178 63.4239 65.2377 63.2439 66.1732 63.1479C66.6407 63.0999 67.0749 63.0715 67.4514 63.0729C67.8136 63.0743 68.1813 63.1025 68.485 63.1999C68.9463 63.3479 69.7735 63.7532 70.7243 64.2687C71.4326 64.6528 72.2416 65.1158 73.0769 65.6197C72.9368 65.3409 72.7878 65.0503 72.6323 64.7555C72.1852 63.9079 71.691 63.0371 71.207 62.3114C70.7051 61.5589 70.2728 61.0542 69.9655 60.8451C69.8533 60.7688 69.5851 60.6519 69.1113 60.5185C68.6591 60.3912 68.0856 60.2663 67.4178 60.1454C66.0837 59.9038 64.4228 59.6869 62.7044 59.4967C60.1676 59.216 57.5443 58.9976 55.701 58.8442L55.6997 58.8441C55.0451 58.7896 54.4889 58.7433 54.07 58.7053C52.5473 58.5768 51.6312 58.7542 51.0487 59.1113C50.4949 59.4508 50.1121 60.0351 49.8561 61.0643C49.5797 62.1756 49.1287 64.3577 48.7438 66.2791L48.0472 69.8248C48.033 69.8989 48.0084 69.9683 47.975 70.0319ZM64.8447 57.1562C64.9373 57.5717 65.0373 57.9552 65.1279 58.278C64.3976 58.1814 63.6365 58.0907 62.8694 58.0058C60.3221 57.7239 57.671 57.5029 55.8281 57.3495L55.8109 56.6992C55.7988 56.1946 55.7851 55.5485 55.7761 54.8881C58.5509 52.2472 60.2431 50.053 61.351 48.2028C61.4758 48.5914 61.6305 49.0333 61.8176 49.5011C62.3729 50.8898 63.2504 52.6027 64.5502 53.7849C64.4154 54.8693 64.6233 56.1628 64.8447 57.1562ZM54.337 40.8197C54.3305 40.7962 54.3251 40.7723 54.3208 40.7478C53.572 36.4559 51.8856 34.5115 50.5082 33.6138C49.8297 33.1716 49.1967 32.9635 48.7316 32.8659L49.3764 46.4351C50.5869 44.9704 51.9077 43.4459 53.2622 41.9714C53.618 41.584 53.9767 41.1994 54.337 40.8197Z" fill="black"/>
</svg>
