<svg width="160" height="160" viewBox="0 0 160 160" fill="none" xmlns="http://www.w3.org/2000/svg">
<path d="M81.8139 111.974C79.0422 111.974 76.7539 114.23 76.7539 117.034C76.7539 119.806 79.01 122.094 81.8139 122.094C84.6179 122.094 86.8739 119.838 86.8739 117.034C86.8739 114.23 84.6179 111.974 81.8139 111.974Z" fill="#24A550" stroke="#24A550" stroke-width="2" stroke-miterlimit="10"/>
<path d="M125.695 75.104C124.946 75.104 124.263 74.8176 123.734 74.2888C112.432 62.9867 97.4066 56.7739 81.4339 56.7739C65.4611 56.7739 50.4357 62.9867 39.1336 74.2888C38.6048 74.8176 37.8998 75.104 37.1728 75.104C36.4237 75.104 35.7408 74.8176 35.212 74.2888C34.1325 73.2093 34.1325 71.4468 35.212 70.3452C47.5716 57.9856 63.985 51.2 81.4339 51.2C98.8827 51.2 115.318 58.0076 127.656 70.3452C128.735 71.4248 128.735 73.1873 127.656 74.2888C127.149 74.8176 126.444 75.104 125.695 75.104Z" fill="#24A550" stroke="#24A550" stroke-width="2" stroke-miterlimit="10"/>
<path d="M97.0957 103.723C96.3466 103.723 95.6416 103.436 95.1349 102.908C91.4777 99.2504 86.6087 97.2456 81.4534 97.2456C76.276 97.2456 71.4071 99.2504 67.7719 102.908C67.2432 103.436 66.5381 103.723 65.8111 103.723C65.062 103.723 64.3791 103.436 63.8503 102.908C63.3216 102.379 63.0352 101.674 63.0352 100.947C63.0352 100.198 63.3216 99.5148 63.8503 98.9861C68.565 94.2713 74.8219 91.6716 81.4754 91.6716C88.1289 91.6716 94.4079 94.2713 99.1005 98.9861C99.6293 99.5148 99.9157 100.22 99.9157 100.947C99.9157 101.696 99.6293 102.379 99.1005 102.908C98.5498 103.436 97.8448 103.723 97.0957 103.723Z" fill="#24A550" stroke="#24A550" stroke-width="2" stroke-miterlimit="10"/>
<path d="M110.076 89.6226C109.327 89.6226 108.644 89.3362 108.116 88.8075C100.999 81.6913 91.5259 77.7697 81.4576 77.7697C71.3892 77.7697 61.9157 81.6913 54.7996 88.8075C54.2709 89.3362 53.5658 89.6226 52.8388 89.6226C52.0897 89.6226 51.4068 89.3362 50.878 88.8075C49.7985 87.7279 49.7985 85.9654 50.878 84.8639C59.0517 76.6902 69.9131 72.1958 81.4796 72.1958C93.0461 72.1958 103.908 76.6902 112.081 84.8639C113.161 85.9434 113.161 87.7059 112.081 88.8075C111.508 89.3362 110.825 89.6226 110.076 89.6226Z" fill="#24A550" stroke="#24A550" stroke-width="2" stroke-miterlimit="10"/>
<path fill-rule="evenodd" clip-rule="evenodd" d="M32.4172 71.1818C31.7331 70.4977 31.7219 69.3653 32.4211 68.6484C44.5926 56.479 60.7499 49.8 77.9319 49.8C95.1156 49.8 111.297 56.5023 123.447 68.6524C124.132 69.3375 124.142 70.4722 123.44 71.189L123.44 71.1889L123.432 71.197C123.125 71.5171 122.686 71.704 122.193 71.704C121.712 71.704 121.283 71.5251 120.939 71.1818C109.449 59.6919 94.1695 53.3739 77.9319 53.3739C61.6943 53.3739 46.4144 59.6919 34.9245 71.1818C34.5842 71.5221 34.1339 71.704 33.6708 71.704C33.19 71.704 32.7605 71.5251 32.4172 71.1818ZM77.9319 47.8C60.2181 47.8 43.5503 54.6908 31.0029 67.2382L31.0029 67.2381L30.9958 67.2453C29.5391 68.7318 29.529 71.122 31.0029 72.596C31.7171 73.3101 32.6535 73.704 33.6708 73.704C34.6619 73.704 35.6216 73.3131 36.3387 72.596C47.453 61.4817 62.224 55.3739 77.9319 55.3739C93.6398 55.3739 108.411 61.4817 119.525 72.596C120.239 73.3101 121.176 73.704 122.193 73.704C123.196 73.704 124.165 73.3196 124.872 72.5849C126.325 71.0982 126.334 68.7108 124.861 67.2382C112.336 54.713 95.646 47.8 77.9319 47.8ZM77.9331 108.152C74.6132 108.152 71.873 110.852 71.873 114.212C71.873 117.532 74.5727 120.272 77.9331 120.272C81.2893 120.272 83.993 117.568 83.993 114.212C83.993 110.856 81.2893 108.152 77.9331 108.152ZM73.873 114.212C73.873 111.965 75.7095 110.152 77.9331 110.152C80.1847 110.152 81.993 111.961 81.993 114.212C81.993 116.464 80.1847 118.272 77.9331 118.272C75.6855 118.272 73.873 116.436 73.873 114.212ZM77.9735 90.2716C71.5863 90.2716 65.5834 92.7652 61.0555 97.2931C60.7121 97.6365 60.5332 98.066 60.5332 98.5468C60.5332 99.0099 60.7151 99.4602 61.0555 99.8005C61.3988 100.144 61.8283 100.323 62.3092 100.323C62.7717 100.323 63.2215 100.141 63.5618 99.8016C67.3869 95.9539 72.5116 93.8455 77.9514 93.8455C83.3709 93.8455 88.4945 95.955 92.34 99.8005L92.3476 99.808L92.3549 99.8157C92.6617 100.136 93.1004 100.323 93.5937 100.323C94.0762 100.323 94.5316 100.142 94.8986 99.7933C95.2373 99.4512 95.4137 99.0243 95.4137 98.5468C95.4137 98.0838 95.2318 97.6335 94.8915 97.2931L94.8898 97.2915C90.3855 92.766 84.362 90.2716 77.9735 90.2716ZM59.6413 95.8789C64.5427 90.9775 71.0536 88.2716 77.9735 88.2716C84.8919 88.2716 91.4263 90.9766 96.3073 95.8806C97.0234 96.5976 97.4137 97.5566 97.4137 98.5468C97.4137 99.5641 97.0198 100.501 96.3057 101.215L96.2985 101.222L96.2911 101.229C95.5579 101.933 94.6061 102.323 93.5937 102.323C92.5928 102.323 91.625 101.94 90.919 101.208C87.4509 97.7434 82.8395 95.8455 77.9514 95.8455C73.037 95.8455 68.4243 97.7466 64.9792 101.213L64.9771 101.215C64.2599 101.932 63.3002 102.323 62.3092 102.323C61.2919 102.323 60.3554 101.929 59.6413 101.215C58.9241 100.498 58.5332 99.5379 58.5332 98.5468C58.5332 97.5295 58.9271 96.5931 59.6413 95.8789ZM48.0832 85.7004C47.3991 85.0163 47.3879 83.884 48.0871 83.1671C56.0725 75.1837 66.6779 70.7958 77.9777 70.7958C89.2793 70.7958 99.8863 75.1851 107.872 83.171C108.552 83.8506 108.567 84.9725 107.882 85.6901C107.482 86.0525 107.042 86.2227 106.574 86.2227C106.094 86.2227 105.664 86.0438 105.321 85.7004C98.0169 78.3966 88.289 74.3698 77.9556 74.3698C67.6223 74.3698 57.8944 78.3966 50.5905 85.7004C50.2502 86.0408 49.7999 86.2227 49.3369 86.2227C48.856 86.2227 48.4265 86.0438 48.0832 85.7004ZM77.9777 68.7958C66.1463 68.7958 55.0304 73.3953 46.669 81.7568L46.6689 81.7567L46.6618 81.764C45.2052 83.2504 45.195 85.6407 46.669 87.1146C47.3831 87.8288 48.3196 88.2227 49.3369 88.2227C50.3279 88.2227 51.2876 87.8318 52.0048 87.1146C58.9332 80.1862 68.1523 76.3698 77.9556 76.3698C87.759 76.3698 96.9781 80.1862 103.907 87.1146C104.621 87.8288 105.557 88.2227 106.574 88.2227C107.598 88.2227 108.517 87.8255 109.258 87.1423L109.276 87.1253L109.293 87.1074C110.75 85.621 110.76 83.2307 109.286 81.7568C100.925 73.3953 89.809 68.7958 77.9777 68.7958Z" fill="black"/>
</svg>
