<svg width="124" height="128" viewBox="0 0 124 128" fill="none" xmlns="http://www.w3.org/2000/svg">
<path d="M82.2016 80.512C82.2016 82.7106 80.4208 84.4913 78.226 84.4913C76.0312 84.4913 74.2467 82.7106 74.2467 80.512C74.2467 78.3134 76.0274 76.5365 78.226 76.5365C80.4246 76.5365 82.2016 78.3172 82.2016 80.512Z" fill="#000712"/>
<path d="M92.0351 80.512C92.0351 78.3171 93.8158 76.5364 96.0144 76.5364C98.2092 76.5364 99.9899 78.3134 99.9899 80.512C99.9899 82.7106 98.213 84.4913 96.0144 84.4913C93.8158 84.4913 92.0351 82.7068 92.0351 80.512Z" fill="#000712"/>
<path fill-rule="evenodd" clip-rule="evenodd" d="M69.4017 85.568C69.0968 83.9529 68.9386 82.2851 68.9386 80.5797C68.9386 72.8659 72.1763 65.9124 77.3715 61.0033C76.4454 50.7746 70.8171 41.9087 62.6703 36.5816C67.6247 41.1558 70.7306 47.7026 70.7306 54.9647C70.7306 61.2367 68.4115 66.9741 64.5903 71.3713L47.0506 95.2169L46.9338 95.3713L37.9136 107.52C28.7466 106.101 20.291 101.828 13.6087 95.1454C5.28868 86.8254 0.707031 75.7647 0.707031 64C0.707031 52.2353 5.28868 41.1746 13.6087 32.8546C21.9287 24.5346 32.9894 19.9529 44.7541 19.9529C56.5188 19.9529 67.5795 24.5346 75.8995 32.8546C82.0209 38.976 86.1169 46.5769 87.8524 54.8555C87.8524 54.8555 87.8525 54.8555 87.8524 54.8555C90.3898 54.0612 93.0892 53.6357 95.8864 53.6357C110.768 53.6357 122.83 65.6979 122.83 80.5797C122.83 95.4616 110.768 107.527 95.8864 107.527C87.0431 107.527 79.1937 103.266 74.2807 96.6852C66.1715 104.03 55.7734 108.047 44.7541 108.047C42.8793 108.047 41.0233 107.93 39.1898 107.701L47.3969 96.6437C56.1536 95.9435 63.9429 91.8023 69.4017 85.568C69.4017 85.5679 69.4017 85.568 69.4017 85.568ZM81.4638 88.3689C81.4638 88.3689 81.4638 88.3689 81.4638 88.3689C81.7161 88.2635 81.9608 88.1468 82.2017 88.0188V88.6475H86.7118V80.8019C86.7193 80.7077 86.7193 80.6099 86.7193 80.512C86.7193 79.7515 86.6177 79.0174 86.4295 78.3171C86.3241 77.9228 86.1909 77.5397 86.0321 77.17C84.8242 74.3565 82.1358 72.3214 78.954 72.0497C78.7141 72.0293 78.4713 72.0188 78.2261 72.0188C77.699 72.0188 77.1835 72.0678 76.682 72.1608C76.6104 72.174 76.5391 72.1882 76.468 72.2033C72.6243 73.0127 69.7292 76.431 69.7292 80.512C69.7292 81.8221 70.0266 83.0607 70.5575 84.1713C70.5942 84.2478 70.6319 84.3237 70.6708 84.3989C70.7227 84.4993 70.7765 84.5985 70.8323 84.6965C70.9299 84.8681 71.0333 85.036 71.1422 85.1999C72.6663 87.493 75.2747 89.0089 78.2261 89.0089M87.5288 66.1082V80.0753C87.5175 80.2183 87.5175 80.3651 87.5175 80.512C87.5175 85.199 91.3311 89.0089 96.0144 89.0089C100.698 89.0089 104.508 85.1953 104.508 80.512C104.508 75.8287 100.698 72.0188 96.0144 72.0188C94.5763 72.0188 93.2248 72.3764 92.0351 73.0127V66.1082H87.5288ZM78.2261 89.0089C79.3705 89.0089 80.4624 88.783 81.4638 88.3689L78.2261 89.0089ZM56.7371 63.1529L42.6195 82.1647H42.6157L33.4261 94.7388C20.9197 90.1308 12.0011 78.1063 12.0011 64C12.0011 49.8936 20.6487 38.2343 32.8576 33.4758C25.5578 37.8541 20.66 45.8503 20.66 54.9647C20.66 67.8362 30.4218 78.4715 42.9357 79.8456L52.5734 66.8649C50.548 68.0358 48.2026 68.7059 45.6953 68.7059C38.1056 68.7059 31.9541 62.5543 31.9541 54.9647C31.9541 47.375 38.1056 41.2235 45.6953 41.2235C53.2849 41.2235 59.4364 47.375 59.4364 54.9647C59.4364 58.0329 58.435 60.8602 56.7334 63.1492H56.7371V63.1529ZM105.253 80.512C105.253 85.199 109.063 89.0089 113.746 89.0089C117.801 89.0089 121.2 86.1553 122.04 82.3491H117.277C116.615 83.6216 115.282 84.4913 113.746 84.4913C111.551 84.4913 109.771 82.7068 109.771 80.512C109.771 78.3171 111.551 76.5364 113.746 76.5364C115.316 76.5364 116.671 77.4437 117.319 78.7576H122.059C121.249 74.9139 117.827 72.0188 113.746 72.0188C109.063 72.0188 105.253 75.8249 105.253 80.512Z" fill="#000712"/>
</svg>
