<svg width="128" height="128" viewBox="0 0 128 128" fill="none" xmlns="http://www.w3.org/2000/svg">
<g clip-path="url(#clip0_3200_1369)">
<path d="M-0.226352 29.3274L127.766 29.195V92.6293H117.819L116.363 93.7407C111.66 97.3317 104.145 99.1613 95.8358 98.744C88.71 98.3829 83.7348 96.9184 79.1808 93.837C77.4194 92.6453 77.3593 92.6293 74.4544 92.6293C72.1112 92.6293 71.4572 92.7296 71.2405 93.1148C70.6627 94.1459 68.1832 96.445 66.9835 97.0589C64.2351 98.4632 61.1135 98.8483 57.4062 98.2425C55.1633 97.8734 52.1661 96.5493 51.2152 95.5061C50.5612 94.7879 50.5491 94.7357 51.1109 94.9644C54.2806 96.2524 55.2716 96.453 58.5737 96.469C61.4505 96.4811 62.2891 96.3687 63.8579 95.7549C67.144 94.4669 70.3378 90.583 70.7711 87.3451C70.8634 86.663 70.9717 86.1053 71.0118 86.1053C71.0519 86.1053 72.2596 87.2649 73.692 88.6852C76.7654 91.7265 78.9321 93.2111 82.2502 94.5391C88.8183 97.1712 98.7167 97.6527 106.228 95.7147C113.506 93.833 119.28 88.7293 121.23 82.4421C123.28 75.8379 121.663 69.7151 116.575 64.8602C111.672 60.1779 107.183 58.4165 95.4186 56.5709C86.6718 55.1986 81.1509 53.2447 78.8598 50.7049C75.1485 46.5963 77.9651 41.3964 84.8783 39.5748C87.7872 38.8084 94.4516 38.9007 97.6895 39.7473C103.05 41.1516 107.026 44.3454 110.782 50.2716L112.603 53.1484H116.254V34.4912H114.417C112.627 34.4912 112.523 34.5394 110.344 36.3569C109.117 37.3841 108.049 38.2227 107.973 38.2227C107.897 38.2227 107.275 37.9378 106.597 37.5927C104.258 36.4011 100.141 34.8563 97.3926 34.1462C95.1818 33.5724 93.8498 33.436 90.5998 33.452C80.22 33.4962 72.3399 37.5325 68.5523 44.7386C66.9674 47.7559 66.4097 50.4441 66.5702 54.2798C66.6906 57.1125 66.819 57.6702 67.8381 59.8128C69.7359 63.813 73.672 67.3398 78.8117 69.6429C82.515 71.304 87.5946 72.6521 94.5599 73.8157C104.278 75.4447 107.014 76.2912 109.032 78.3134C110.136 79.4168 110.826 81.8483 110.509 83.5374C109.586 88.4565 104.98 90.9802 96.3093 91.3092C89.8455 91.558 85.9696 90.5188 80.9623 87.1967C76.9982 84.5686 73.2868 80.3477 71.0479 75.9261L70.2214 74.2931H64.6363V79.8903C64.6363 85.0741 64.5922 85.5315 64.0144 86.1093C63.1758 86.9479 61.4947 86.9318 60.7203 86.0772C60.1546 85.4553 60.1185 84.5485 59.9499 67.3438C59.7614 47.9404 59.7373 47.6676 58.0682 44.3574C55.8975 40.0523 53.0167 37.3921 48.7316 35.739C36.5142 31.0286 20.3567 33.7409 12.7494 41.7856C10.4664 44.201 9.4874 46.4559 9.51147 49.2524C9.54357 53.1283 10.9639 55.6681 13.9009 57.1085C15.3734 57.8267 16.0595 57.9671 18.1459 57.9671C20.9345 57.9671 22.5354 57.5218 23.9196 56.3542C25.4483 55.0703 26.1705 53.3129 26.1946 50.8212C26.2186 48.5102 25.8696 47.3546 24.4613 45.0355C23.9838 44.2451 23.5906 43.3504 23.5906 43.0454C23.5906 42.0785 25.8054 40.297 27.7995 39.655C30.1346 38.9088 34.3515 38.656 36.4941 39.1334C38.6086 39.6069 40.7351 40.9711 41.9267 42.6161C43.5678 44.879 44.1295 47.3667 44.3381 53.2286C44.4384 56.0934 44.4304 58.4366 44.3181 58.4366C43.5718 58.4366 35.0417 60.2341 31.0534 61.2291C16.0274 64.9846 8.38402 69.7512 6.13312 76.7647C5.65566 78.2573 5.48313 79.5894 5.48715 81.756C5.49517 85.5316 6.29763 88.1917 8.17939 90.6793L9.54357 92.4848L4.9174 92.5691L-0.234375 92.6534V29.3394L-0.226352 29.3274Z" fill="#000712"/>
<path d="M28.7307 87.9349C26.8529 87.4695 25.1718 86.1334 24.1165 84.2597C23.3301 82.8594 23.1496 82.1452 23.0372 80.0066C22.7002 73.5549 26.0545 69.0892 33.1923 66.4973C36.0451 65.4621 41.9712 64.0177 43.3595 64.0177H44.186L44.0496 70.1605C43.9292 75.6734 43.8329 76.544 43.1308 78.6625C41.6783 83.052 39.1065 85.989 35.5516 87.317C33.5374 88.0713 30.4199 88.3522 28.7267 87.9309L28.7307 87.9349Z" fill="#000712"/>
<path d="M14.7438 96.6015C16.4771 97.4802 19.2055 98.2345 21.673 98.5233L21.665 98.5193C24.6421 98.8644 24.9752 98.8644 28.2532 98.5233C32.8312 98.0459 35.7161 96.9224 39.4716 94.154L41.5178 92.6494L48.0177 92.4728L44.6875 86.0772L42.5089 88.0312C34.5164 95.1931 31.2745 96.6536 23.3462 96.6656C18.9286 96.6737 15.9275 96.112 13.2071 94.7759C12.196 94.2783 11.3133 93.9253 11.2491 93.9895C11.0605 94.178 13.3716 95.9073 14.7438 96.6015Z" fill="#000712"/>
</g>
<defs>
<clipPath id="clip0_3200_1369">
<rect width="128" height="128" fill="white"/>
</clipPath>
</defs>
</svg>
