<svg width="206" height="112" viewBox="0 0 206 112" fill="none" xmlns="http://www.w3.org/2000/svg">
<path d="M184.102 16.1863V97.4387H150.403L141.979 112L133.576 97.4387H0.214844L4.70511 92.9485L179.612 20.6766L184.102 16.1863Z" fill="#5A6069"/>
<path d="M184.102 16.1863L179.612 20.6766L4.70511 92.9485L0.214844 97.4387V16.1863H53.6704L63.0144 0L72.3584 16.1863H184.102Z" fill="#CBCFD5"/>
<path d="M179.612 20.6766H69.1511L63.0144 10.0283L56.8777 20.6766H4.70508V92.9485H136.783L141.979 101.972L147.196 92.9485H179.612V20.6766Z" fill="#000712"/>
<path d="M16.0155 30.2986H29.2511C32.3088 30.2986 34.5539 31.0042 35.9651 32.4368C36.9273 33.399 37.4191 34.6392 37.4191 36.1145V36.1787C37.4191 38.7873 36.0079 40.5834 33.1854 41.5884C36.5211 42.5506 38.1889 44.475 38.1889 47.3402V47.4044C38.1889 49.3501 37.4191 50.911 35.901 52.1084C34.2973 53.3486 32.0308 53.9687 29.1014 53.9687H15.9941V30.2986H16.0155ZM29.6146 37.8893C29.6146 36.7988 28.7593 36.2642 27.0915 36.2642H23.6704V39.5785H27.1129C28.7807 39.5785 29.6146 39.0439 29.6146 37.9534V37.8893ZM30.2347 46.1642C30.2347 45.0095 29.3794 44.4322 27.6688 44.4322H23.6917V47.9389H27.6261C29.358 47.9389 30.2347 47.3616 30.2347 46.2069V46.1642Z" fill="#CBCFD5"/>
<path d="M43.1072 50.911C40.6269 48.5376 39.3867 45.651 39.3867 42.1871V42.1229C39.3867 38.6804 40.6269 35.751 43.1286 33.3776C45.6089 30.9828 48.6666 29.8068 52.323 29.8068C55.9579 29.8068 59.0156 30.9828 61.5173 33.3562C63.9763 35.7297 65.195 38.6163 65.195 42.0802V42.1443C65.195 45.5655 63.9549 48.4948 61.4745 50.8896C58.9514 53.2845 55.8724 54.4605 52.2588 54.4605C48.6238 54.4605 45.5876 53.2631 43.1072 50.911ZM55.9152 45.8648C56.7918 44.8599 57.2409 43.6197 57.2409 42.1871V42.1229C57.2409 40.6262 56.7918 39.4074 55.8938 38.4024C54.953 37.3119 53.7342 36.7774 52.2802 36.7774C50.8262 36.7774 49.6288 37.3119 48.7094 38.3597C47.8327 39.3646 47.3837 40.6048 47.3837 42.0374V42.1016C47.3837 43.5983 47.8327 44.8171 48.7307 45.8221C49.6716 46.9126 50.8903 47.4471 52.3443 47.4471C53.7983 47.4685 54.9743 46.9339 55.9152 45.8648Z" fill="#CBCFD5"/>
<path d="M70.5408 50.911C68.0605 48.5376 66.8203 45.651 66.8203 42.1871V42.1229C66.8203 38.6804 68.0605 35.751 70.5622 33.3776C73.0425 30.9828 76.1002 29.8068 79.7566 29.8068C83.3915 29.8068 86.4492 30.9828 88.9509 33.3562C91.4099 35.7297 92.6286 38.6163 92.6286 42.0802V42.1443C92.6286 45.5655 91.3885 48.4948 88.9081 50.8896C86.385 53.2845 83.306 54.4605 79.6924 54.4605C76.0574 54.4605 73.0212 53.2631 70.5408 50.911ZM83.3488 45.8648C84.2254 44.8599 84.6745 43.6197 84.6745 42.1871V42.1229C84.6745 40.6262 84.2254 39.4074 83.3274 38.4024C82.3866 37.3119 81.1678 36.7774 79.7138 36.7774C78.2598 36.7774 77.0624 37.3119 76.143 38.3597C75.2663 39.3646 74.8173 40.6048 74.8173 42.0374V42.1016C74.8173 43.5983 75.2663 44.8171 76.1643 45.8221C77.1052 46.9126 78.3239 47.4471 79.7779 47.4471C81.2319 47.4685 82.408 46.9339 83.3488 45.8648Z" fill="#CBCFD5"/>
<path d="M94.7871 30.2986H103.041L108.108 38.6163L113.176 30.2986H121.429V53.9473H113.561V42.2299L108.13 50.6331H108.001L102.57 42.2299V53.9473H94.8299V30.2986H94.7871Z" fill="#CBCFD5"/>
<path d="M124.123 30.2986H144.286V36.7774H131.885V39.1722H143.431V44.8813H131.885V47.4471H144.458V53.9259H124.123V30.2986Z" fill="#CBCFD5"/>
<path d="M146.576 30.2986H158.123C161.993 30.2986 164.837 31.1966 166.633 32.9927C168.065 34.4254 168.792 36.307 168.792 38.5949V38.659C168.792 41.9519 167.231 44.3681 164.131 45.8862L169.648 53.9259H160.624L156.177 47.1905H154.488V53.9473H146.576V30.2986ZM157.909 41.5456C159.94 41.5456 160.945 40.7759 160.945 39.2577V39.1936C160.945 37.6754 159.94 36.9271 157.93 36.9271H154.488V41.5456H157.909Z" fill="#CBCFD5"/>
<path d="M28.3334 59.5709H36.1806L46.1447 83.3906H37.5705L36.3303 80.2047H28.0554L26.8366 83.3906H18.3906L28.3334 59.5709ZM34.3418 74.6026L32.1822 68.8507L30.0225 74.6026H34.3418Z" fill="#B4B9C1"/>
<path d="M47.1073 59.7419H54.5056L62.9088 70.1764V59.7419H70.756V83.3906H63.7213L54.9332 72.4857V83.3906H47.0859V59.7419H47.1073Z" fill="#B4B9C1"/>
<path d="M73.4707 59.7419H82.5154C87.1126 59.7419 90.6406 60.811 93.0996 62.9279C95.4516 65.0019 96.6063 67.8244 96.6063 71.3738V71.438C96.6063 75.073 95.4089 77.9382 93.0354 80.055C90.5123 82.2788 86.9201 83.3906 82.2588 83.3906H73.4707V59.7419ZM81.3607 66.6484V76.5056H82.6864C86.6421 76.5056 88.6307 74.8805 88.6307 71.609V71.5449C88.6307 68.2734 86.6421 66.6484 82.6864 66.6484H81.3607Z" fill="#B4B9C1"/>
<path d="M111.532 80.5254C108.945 78.2161 107.641 75.244 107.641 71.6304V71.5663C107.641 68.0382 108.881 65.0875 111.361 62.7568C113.841 60.4048 116.942 59.2501 120.684 59.2501C124.554 59.2501 127.847 60.4475 130.584 62.8209L126.158 68.1665C124.554 66.798 122.822 66.1138 120.919 66.1138C119.379 66.1138 118.118 66.6484 117.092 67.6961C116.108 68.7652 115.595 70.0909 115.595 71.6946V71.7587C115.595 73.4265 116.129 74.795 117.177 75.8641C118.203 76.9118 119.572 77.425 121.24 77.425C122.416 77.425 123.314 77.2326 123.934 76.8691V74.4742H119.871V69.4067H131.332V80.3544C128.424 82.7278 124.939 83.9038 120.898 83.9038C117.134 83.9038 114.013 82.7706 111.532 80.5254Z" fill="#5A6069"/>
<path d="M133.727 59.7419H141.638V83.3906H133.727V59.7419Z" fill="#5A6069"/>
<path d="M147.068 80.3544C144.588 77.9809 143.348 75.0943 143.348 71.6304V71.5663C143.348 68.1237 144.588 65.1944 147.09 62.8209C149.57 60.4261 152.628 59.2501 156.284 59.2501C159.919 59.2501 162.977 60.4261 165.478 62.7996C167.937 65.173 169.156 68.0596 169.156 71.5235V71.5876C169.156 75.0088 167.916 77.9382 165.435 80.333C162.912 82.7278 159.833 83.9038 156.22 83.9038C152.606 83.9038 149.548 82.7278 147.068 80.3544ZM159.876 75.3295C160.753 74.3246 161.202 73.0844 161.202 71.6518V71.5663C161.202 70.0695 160.753 68.8507 159.855 67.8458C158.914 66.7553 157.695 66.2207 156.241 66.2207C154.787 66.2207 153.59 66.7553 152.67 67.803C151.794 68.808 151.345 70.0481 151.345 71.4807V71.5449C151.345 73.0416 151.794 74.2604 152.692 75.2654C153.633 76.3559 154.851 76.8904 156.305 76.8904C157.759 76.9118 158.957 76.3773 159.876 75.3295Z" fill="#5A6069"/>
<circle cx="184" cy="59" r="20.5" fill="#FCE700" stroke="#000712" stroke-width="3"/>
<path d="M180.035 65.1315V52.8685C180.035 52.0698 180.925 51.5934 181.59 52.0365L190.787 58.1679C191.381 58.5638 191.381 59.4362 190.787 59.832L181.59 65.9635C180.925 66.4066 180.035 65.9302 180.035 65.1315Z" fill="#000712"/>
</svg>
