<svg width="156" height="128" viewBox="0 0 156 128" fill="none" xmlns="http://www.w3.org/2000/svg">
<path d="M138.433 14H139.005C141.342 14.1576 143.348 14.9444 145.474 15.6626C147.449 16.3302 149.276 15.8526 150.742 14.403C150.756 14.3897 150.772 14.3791 150.789 14.3718C150.807 14.3646 150.826 14.3609 150.845 14.3609H151.233C151.244 14.3609 151.254 14.3629 151.263 14.3669C151.273 14.3708 151.281 14.3765 151.289 14.3838C151.296 14.3911 151.302 14.3997 151.306 14.4092C151.309 14.4187 151.311 14.4288 151.311 14.4391L151.382 31.2764C151.383 31.2862 151.381 31.2959 151.377 31.305C151.373 31.3141 151.368 31.3224 151.361 31.3295C151.354 31.3365 151.346 31.3421 151.337 31.346C151.328 31.3499 151.318 31.352 151.308 31.3522L150.907 31.3546C150.853 31.3546 150.821 31.3273 150.813 31.2728C150.291 27.7127 149.205 24.3471 147.556 21.1759C146.85 19.8189 146.03 18.5859 145.035 17.526C142.765 15.1056 139.485 14.314 136.382 15.5062C132.825 16.8752 130.948 20.3374 131.284 24.0836C131.894 30.8614 141.092 32.6695 146.161 34.2202C151.996 36.003 154.969 39.5399 155.118 45.7678V46.4271C155.073 48.5981 154.597 50.6456 153.691 52.5696C151.385 57.4647 145.256 61.7426 139.689 60.9474C136.92 60.5516 134.28 59.6012 131.659 58.6641C130.848 58.3737 130.193 58.1853 129.697 58.0986C128.486 57.8881 127.251 58.723 126.534 59.6313C126.505 59.6674 126.467 59.685 126.42 59.6842L126.043 59.6794C125.998 59.6786 125.975 59.6553 125.975 59.6096V42.391C125.975 42.3509 125.995 42.3308 126.035 42.3308H126.572C126.605 42.3308 126.625 42.3477 126.629 42.3814C127.049 45.5128 128.209 48.5805 129.501 51.446C132.012 57.0111 137.933 61.9904 144.445 59.6662C148.25 58.308 150.025 54.7627 149.81 50.812C149.681 48.465 148.291 46.652 146.436 45.3359C143.291 43.1056 139.52 42.0746 135.967 40.7922C131.722 39.2608 128.338 37.0063 127.09 32.4662C126.535 30.4459 126.363 28.3407 126.574 26.1504C127.183 19.8418 132.084 14.7074 138.433 14ZM66.8134 60.4168C60.5939 59.0262 55.6134 54.7002 53.0667 48.892C51.3788 45.0412 50.7316 40.8776 50.8663 36.7068C51.119 28.862 55.4053 21.8063 61.75 17.3516C63.5825 16.0652 65.4717 15.138 67.4173 14.5702C70.1145 13.7823 73.3145 14.0481 75.8083 15.3726C77.5503 16.2977 80.7346 17.3756 82.5091 16.2809C83.0544 15.9441 83.5673 15.5703 84.0477 15.1597C84.056 15.1528 84.0661 15.1483 84.0768 15.1468C84.0875 15.1453 84.0984 15.1468 84.1082 15.1513C84.118 15.1557 84.1262 15.1628 84.1319 15.1718C84.1376 15.1808 84.1405 15.1912 84.1403 15.2018V31.2547C84.1403 31.2626 84.1374 31.2701 84.1322 31.2759C84.127 31.2818 84.1199 31.2856 84.1121 31.2866C84.1044 31.2876 84.0965 31.2858 84.09 31.2815C84.0834 31.2772 84.0787 31.2707 84.0766 31.2632C82.3238 25.2409 77.5755 13.9122 69.5731 14.5931C61.0161 15.3221 59.8516 29.0352 59.706 35.2403C59.5857 40.3146 59.7385 45.9411 60.654 51.2018C60.9632 52.9823 61.5106 55.2283 62.4489 56.6815C63.7554 58.705 66.1409 59.7408 68.4062 60.1702C76.8621 61.7702 81.7848 51.8815 83.5485 45.4202C83.7927 44.5251 83.9563 43.9417 84.0669 43.1826C84.0734 43.1392 84.0954 43.1401 84.1331 43.185C84.1371 43.1904 84.1392 43.1972 84.1391 43.2042L84.1403 59.2908C84.1405 59.2995 84.1381 59.3081 84.1335 59.3155C84.129 59.3229 84.1224 59.3288 84.1145 59.3326C84.1067 59.3364 84.098 59.3379 84.0893 59.3369C84.0807 59.3359 84.0725 59.3324 84.0658 59.3269C83.2501 58.6605 82.3154 57.9098 81.217 57.7714C79.5292 57.5585 77.6501 58.3573 76.1788 59.1368C73.0811 60.7777 70.2757 61.1916 66.8134 60.4168ZM1.13281 38.0517V37.123C1.43236 24.6611 11.3103 14.4535 23.8997 14.2851C39.5617 14.0758 50.799 29.2854 46.325 44.2773C43.6375 53.2794 35.593 59.9922 26.1024 60.7392C12.6961 61.7955 1.52018 51.3943 1.13281 38.0517ZM45.4588 37.3383C40.9584 28.9414 32.4519 23.2872 22.7605 23.8899C14.2973 24.4156 6.99747 30.0818 2.99507 37.3191C2.97823 37.3504 2.97823 37.3817 2.99507 37.4129C8.04529 46.8144 18.4561 53.36 29.3722 50.6171C36.417 48.8463 42.1085 43.7059 45.4588 37.4153C45.4651 37.4035 45.4685 37.3903 45.4685 37.3768C45.4685 37.3634 45.4651 37.3502 45.4588 37.3383ZM112.465 15.7612C116.999 17.1218 121.763 20.738 121.781 25.8821C121.793 29.4779 120.219 32.1173 117.021 33.7606C115.308 34.6412 113.57 35.2495 111.807 35.5856C111.647 35.616 111.522 35.6449 111.432 35.6722C111.422 35.6749 111.414 35.6808 111.409 35.6888C111.403 35.6968 111.4 35.7064 111.401 35.7162C111.401 35.726 111.405 35.7352 111.412 35.7425C111.418 35.7498 111.427 35.7547 111.437 35.7564C117.195 36.6141 123.461 39.8093 124.022 46.3585C124.75 54.8529 116.123 59.5423 108.943 60.1799C108.39 60.2288 107.589 60.2532 106.539 60.2532C99.4614 60.2564 92.3841 60.2568 85.3073 60.2544C85.2511 60.2544 85.223 60.2268 85.223 60.1714V59.8647C85.223 59.8246 85.2431 59.8045 85.2832 59.8045H92.1704C92.2506 59.8045 92.2907 59.7644 92.2907 59.6842V15.3798C92.2907 15.3422 92.2719 15.3233 92.2342 15.3233H85.3133C85.2531 15.3233 85.223 15.2932 85.223 15.2331V14.9383C85.223 14.8926 85.2463 14.8698 85.2928 14.8698C92.4074 14.869 99.522 14.8786 106.637 14.8986C108.622 14.9035 110.565 15.191 112.465 15.7612ZM112.328 33.917C113.429 32.5456 113.803 30.5895 113.974 28.8271C114.285 25.6162 114.29 21.9531 113.044 18.9612C111.9 16.2159 109.521 15.3438 106.697 15.3329C104.944 15.3257 103.2 15.3221 101.465 15.3221C101.449 15.3221 101.433 15.3286 101.421 15.3401C101.41 15.3516 101.403 15.3672 101.403 15.3835V35.4424C101.403 35.4587 101.41 35.4743 101.421 35.4858C101.432 35.4973 101.448 35.5038 101.464 35.5038C103.797 35.5078 106.13 35.5018 108.464 35.4857C109.966 35.4749 111.346 35.1417 112.328 33.917ZM115.795 49.6716C116.072 43.9392 115.44 35.9296 107.624 35.9525C105.586 35.9589 103.535 35.9577 101.47 35.9489C101.426 35.9489 101.403 35.9709 101.403 36.015V59.594C101.403 59.6541 101.373 59.6842 101.313 59.6842H100.838C100.816 59.6842 100.8 59.6934 100.789 59.7119L100.768 59.7468C100.744 59.7877 100.756 59.8081 100.803 59.8081C103.036 59.8089 105.269 59.8073 107.502 59.8033C114.065 59.7925 115.526 55.274 115.795 49.6716Z" fill="#000712"/>
<path d="M35.9138 36.8259C36.3481 44.4144 29.8013 50.3308 22.3631 49.218C16.7992 48.3868 12.6344 43.4003 12.5117 37.822C12.3397 29.9964 19.6239 24.1233 27.263 26.1492C32.1195 27.4376 35.6275 31.8298 35.9138 36.8259ZM155.117 97.9784V98.6352C155.009 102.745 153.509 106.195 150.616 108.985C148.249 111.267 144.547 113.282 141.182 113.247C137.866 113.212 134.556 111.888 131.507 110.816C130.754 110.55 129.825 110.225 129.078 110.295C128.017 110.395 127.173 111.069 126.508 111.849C126.498 111.86 126.486 111.869 126.473 111.875C126.46 111.881 126.445 111.883 126.431 111.883L126.059 111.857C126.003 111.854 125.975 111.825 125.975 111.768V94.5859C125.975 94.5353 126 94.5105 126.05 94.5113L126.554 94.5125C126.602 94.5125 126.628 94.5361 126.634 94.5835C126.997 97.6692 128.206 100.763 129.58 103.78C131.889 108.85 136.97 113.342 142.9 112.281C147.123 111.524 149.639 108.353 149.825 104.104C149.964 100.968 148.494 98.8373 145.942 97.1928C141.916 94.5991 137.193 93.8268 132.965 91.677C129.793 90.0638 127.726 87.5615 126.932 84.0223C125.671 78.4102 126.988 72.5949 131.706 68.9859C133.354 67.7239 135.357 66.7314 137.414 66.3465C140.028 65.8568 142.574 66.8734 145.138 67.742C147.298 68.4734 149.063 68.2436 150.743 66.6123C150.771 66.5851 150.805 66.5714 150.846 66.5714H151.245C151.291 66.5714 151.314 66.5939 151.314 66.6388L151.382 83.4869C151.382 83.507 151.374 83.5263 151.36 83.5405C151.346 83.5547 151.327 83.5627 151.308 83.5627H150.894C150.841 83.5627 150.811 83.5367 150.806 83.4845C150.345 79.5567 148.792 75.3558 146.813 72.0511C145.09 69.1735 142.514 67.0731 139.026 67.1729C135.555 67.2728 132.633 69.514 131.638 72.8054C131.221 74.1841 131.123 75.8502 131.446 77.2385C132.496 81.7534 137.528 83.8298 141.578 85.04C144.228 85.8316 147.069 86.5113 149.517 87.8178C153.475 89.9302 155.036 93.668 155.117 97.9784ZM6.60614 111.113V68.1353C6.60614 68.0952 6.58609 68.0752 6.54599 68.0752H1.64374C1.61183 68.0752 1.58123 68.0625 1.55867 68.04C1.53611 68.0174 1.52344 67.9868 1.52344 67.9549V66.812C1.52344 66.7961 1.52977 66.7808 1.54106 66.7695C1.55234 66.7582 1.56764 66.7519 1.58359 66.7519H14.8227C14.866 66.7519 14.8989 66.7703 14.9213 66.8072L33.124 96.6899C33.1284 96.6966 33.1347 96.7017 33.1422 96.7045C33.1496 96.7074 33.1578 96.7077 33.1654 96.7056C33.1731 96.7034 33.1798 96.6989 33.1847 96.6926C33.1896 96.6863 33.1924 96.6786 33.1926 96.6707V68.1353C33.1926 68.0952 33.1726 68.0752 33.1325 68.0752H28.14C28.124 68.0752 28.1087 68.0689 28.0974 68.0576C28.0862 68.0463 28.0798 68.031 28.0798 68.015V66.812C28.0798 66.7719 28.0999 66.7519 28.14 66.7519H87.7189C87.759 66.7519 87.7791 66.7719 87.7791 66.812V68.0006C87.7791 68.0519 87.7538 68.0776 87.7033 68.0776L83.9932 68.0704C83.9886 68.0704 83.9839 68.0715 83.9798 68.0736C83.9756 68.0756 83.972 68.0787 83.9692 68.0824C83.9664 68.0861 83.9645 68.0905 83.9636 68.0951C83.9628 68.0997 83.963 68.1044 83.9643 68.1089L93.4537 100.73C93.4556 100.736 93.4597 100.742 93.4653 100.747C93.471 100.751 93.4779 100.753 93.4849 100.753C93.492 100.753 93.4989 100.751 93.5046 100.747C93.5102 100.742 93.5143 100.736 93.5162 100.73L99.2317 81.9086C99.2438 81.8701 99.2438 81.8312 99.2317 81.7919L94.9743 68.1281C94.9691 68.1111 94.9586 68.0962 94.9443 68.0855C94.93 68.0749 94.9127 68.0692 94.8949 68.0692L92.1268 68.0776C92.0754 68.0776 92.0498 68.0523 92.0498 68.0018V66.812C92.0498 66.7719 92.0698 66.7519 92.1099 66.7519H108.591C108.631 66.7519 108.651 66.7719 108.651 66.812V68.0006C108.651 68.0511 108.626 68.0764 108.575 68.0764L103.712 68.0728C103.706 68.0727 103.7 68.074 103.695 68.0766C103.69 68.0792 103.685 68.083 103.681 68.0877C103.678 68.0924 103.676 68.0978 103.675 68.1036C103.674 68.1094 103.674 68.1153 103.676 68.1209C106.86 78.8381 110.047 89.5585 113.237 100.282C113.271 100.397 113.286 100.505 113.283 100.608C113.282 100.62 113.286 100.632 113.294 100.641C113.301 100.65 113.312 100.656 113.324 100.658C113.335 100.66 113.347 100.658 113.358 100.652C113.368 100.646 113.375 100.636 113.379 100.625L123.377 68.1269C123.379 68.1205 123.379 68.1138 123.378 68.1072C123.377 68.1007 123.374 68.0945 123.371 68.0891C123.367 68.0838 123.361 68.0794 123.355 68.0764C123.35 68.0733 123.343 68.0717 123.336 68.0716L118.912 68.0764C118.887 68.0764 118.862 68.0665 118.845 68.0489C118.827 68.0313 118.817 68.0075 118.817 67.9826V66.812C118.817 66.7719 118.837 66.7519 118.877 66.7519H129.07C129.108 66.7519 129.128 66.7711 129.13 66.8096L129.172 67.9176C129.175 68.0235 129.124 68.0764 129.018 68.0764L124.975 68.0716C124.948 68.0716 124.931 68.0844 124.923 68.1101L110.618 113.923C110.601 113.974 110.566 114 110.512 114H108.974C108.935 114 108.898 113.987 108.867 113.964C108.836 113.941 108.813 113.908 108.802 113.871L99.921 84.1835C99.9184 84.175 99.914 84.1673 99.908 84.1608C99.902 84.1543 99.8946 84.1492 99.8863 84.1459C99.878 84.1426 99.8691 84.1411 99.8601 84.1415C99.8512 84.142 99.8424 84.1444 99.8344 84.1486C99.8168 84.1582 99.8068 84.1746 99.8044 84.1979L99.7947 84.3122L90.623 113.922C90.6161 113.944 90.6022 113.964 90.5833 113.978C90.5645 113.992 90.5417 114 90.5183 114H88.9508C88.939 114 88.9276 113.996 88.918 113.989C88.9085 113.983 88.9015 113.973 88.8979 113.962L75.1439 68.1522C75.1279 68.0993 75.0926 68.0728 75.038 68.0728L71.3027 68.074C71.2594 68.074 71.2377 68.0952 71.2377 68.1377V77.8905C71.2377 77.9113 71.2295 77.9312 71.2148 77.9458C71.2002 77.9605 71.1803 77.9687 71.1595 77.9687L70.3102 77.9699C70.2858 77.9699 70.2621 77.9616 70.243 77.9463C70.224 77.931 70.2108 77.9096 70.2055 77.8857C69.5728 74.9408 67.9812 71.4184 65.2612 69.8268C64.1063 69.1499 62.8873 68.6133 61.604 68.2171C61.3266 68.1313 61.0298 68.088 60.7138 68.0872C57.5972 68.0752 54.479 68.0708 51.3592 68.074C51.3183 68.0748 51.2979 68.0956 51.2979 68.1365V87.4412C51.2979 87.4546 51.3006 87.4679 51.3058 87.4803C51.3111 87.4926 51.3187 87.5038 51.3284 87.5131C51.338 87.5224 51.3495 87.5297 51.362 87.5345C51.3745 87.5393 51.3879 87.5415 51.4013 87.5411C52.7571 87.4941 54.3595 87.5784 55.4651 87.4244C57.7689 87.1032 60.1785 85.7714 60.9809 83.4436C61.4244 82.158 61.9501 80.4197 62.558 78.2286C62.5725 78.1764 62.6066 78.1504 62.6603 78.1504H63.5084C63.5686 78.1504 63.5986 78.1805 63.5986 78.2406V97.7293C63.5986 97.7533 63.5891 97.7762 63.5722 97.7931C63.5553 97.8101 63.5323 97.8196 63.5084 97.8196H62.6374C62.6196 97.8196 62.6023 97.8136 62.5883 97.8027C62.5743 97.7918 62.5645 97.7765 62.5604 97.7594C62.2517 96.4914 61.8851 95.2588 61.4609 94.0614C60.9761 92.6887 60.4359 91.274 59.3797 90.3224C57.0603 88.2304 54.2489 88.6117 51.3628 88.6093C51.3456 88.6093 51.3291 88.6162 51.3169 88.6284C51.3047 88.6405 51.2979 88.6571 51.2979 88.6743V111.114C51.2979 111.13 51.3041 111.145 51.3151 111.156C51.3262 111.167 51.3412 111.173 51.3568 111.173C54.7918 111.175 58.2348 111.173 61.6858 111.169C61.9633 111.169 62.2244 111.127 62.469 111.042C64.6717 110.282 67.3147 108.98 68.7631 107.044C70.6086 104.579 71.7622 101.118 72.472 98.0686C72.4764 98.0489 72.4876 98.0314 72.5036 98.0189C72.5195 98.0064 72.5394 97.9997 72.5598 98L73.2949 98.0012C73.347 98.0012 73.3731 98.0273 73.3731 98.0794V112.194C73.3731 112.226 73.3605 112.256 73.3382 112.278C73.3158 112.3 73.2856 112.312 73.254 112.312L38.1887 112.316C38.1558 112.316 38.1243 112.303 38.1011 112.28C38.0778 112.256 38.0648 112.225 38.0648 112.192L38.066 111.251C38.066 111.23 38.0742 111.211 38.0889 111.196C38.1036 111.181 38.1235 111.173 38.1442 111.173H43.091C43.0984 111.173 43.1057 111.171 43.1126 111.169C43.1195 111.166 43.1257 111.162 43.1309 111.156C43.1362 111.151 43.1404 111.145 43.1432 111.138C43.146 111.131 43.1475 111.124 43.1475 111.116V68.1955C43.1475 68.1153 43.1074 68.0752 43.0272 68.0752L34.1213 68.074C34.0836 68.074 34.0648 68.0928 34.0648 68.1305V112.149C34.0648 112.198 34.0403 112.222 33.9914 112.222L32.2362 112.233C32.1993 112.233 32.1709 112.217 32.1508 112.185L8.06058 72.388C8.05612 72.381 8.0495 72.3756 8.04173 72.3726C8.03395 72.3697 8.02543 72.3693 8.01744 72.3716C8.00945 72.3739 8.00242 72.3788 7.9974 72.3854C7.99239 72.392 7.98965 72.4001 7.9896 72.4084V111.079C7.9896 111.104 7.99949 111.128 8.01709 111.145C8.03468 111.163 8.05855 111.173 8.08344 111.173H12.7523C12.7734 111.173 12.7936 111.181 12.8085 111.196C12.8233 111.211 12.8317 111.23 12.8317 111.251V112.206C12.8317 112.235 12.8202 112.263 12.7996 112.284C12.7791 112.304 12.7513 112.316 12.7222 112.316H1.64374C1.61183 112.316 1.58123 112.303 1.55867 112.281C1.53611 112.258 1.52344 112.227 1.52344 112.196V111.263C1.52344 111.239 1.53294 111.216 1.54986 111.199C1.56678 111.182 1.58973 111.173 1.61366 111.173H6.54599C6.58609 111.173 6.60614 111.153 6.60614 111.113Z" fill="#000712"/>
</svg>
