<svg width="242" height="128" viewBox="0 0 242 128" fill="none" xmlns="http://www.w3.org/2000/svg">
<path d="M18 37.5435H28.1597V41.8405C29.5929 38.8414 33.3428 36.79 38.0487 36.79C46.436 36.79 51.0735 42.1769 51.0735 51.0415V59.7024C51.0735 62.2256 51.5508 63.3169 53.3231 63.3169C53.7334 63.3169 54.2681 63.2635 54.4172 63.2485V71.841C54.0767 71.9777 52.6393 72.3183 49.9849 72.3183C44.5296 72.3183 40.9151 69.7267 40.9151 62.4977V52.2737C40.9151 48.3187 38.8008 45.7955 34.7774 45.7955C30.9592 45.7955 28.1625 48.5908 28.1625 52.6142V71.9135H18V37.5435Z" fill="#000712"/>
<path d="M55.2129 54.6601C55.2129 43.6812 63.1284 36.6533 73.8297 36.6533C84.4626 36.6533 91.492 44.4307 91.492 54.1145C91.492 54.1145 91.492 55.8198 91.3552 57.3885H65.3712C65.5764 61.4802 69.1225 64.1388 74.5094 64.1388C78.0555 64.1388 80.5103 63.0448 82.8967 60.7978L88.8389 66.4582C84.2698 71.1627 79.2918 72.7313 74.0417 72.7313C62.8576 72.7313 55.2197 65.7074 55.2197 54.9337L55.2129 54.6601ZM81.2625 50.7735C81.2625 47.6363 77.9215 45.0447 73.8297 45.0447C69.3974 45.0447 65.7829 47.5679 65.5107 50.7735H81.2625Z" fill="#000712"/>
<path d="M90.4453 37.5436H99.8556L105.925 56.7061L111.789 37.5436H119.701L125.628 56.7061L131.702 37.5436H141.113L130.202 71.9135H121.815L115.745 52.2737L109.743 71.9135H101.285L90.4453 37.5436Z" fill="#000712"/>
<path d="M144.85 60.4573C146.688 62.6372 150.244 64.2072 154.26 64.2072C157.875 64.2072 159.443 63.0475 159.443 61.4119C159.443 59.087 154.737 58.8887 149.486 57.1149C144.713 55.4739 141.576 52.751 141.576 47.5679C141.576 40.209 147.986 36.5165 154.943 36.5165C161.079 36.5165 164.157 38.6308 166.749 40.9488L161.906 47.6322C160.402 46.4014 158.693 45.109 154.669 45.109C152.344 45.109 151.26 46.1319 151.26 47.2971C151.26 49.622 154.055 49.2117 160.67 51.5243C166.876 53.6386 169.126 56.9125 169.126 61.2765C169.126 67.8914 164.49 72.8694 153.987 72.8694C146.282 72.8694 141.576 69.9373 138.984 66.7317L144.85 60.4573Z" fill="#000712"/>
<path d="M170.014 48.2489C171.372 47.7689 174.663 46.616 177.561 44.3883V71.9025H189.028V31.2226H179.565C176.19 34.5171 172.485 36.5274 170.014 37.6119V48.2489Z" fill="#000712"/>
<path d="M209.64 61.9138L214.951 55.9826C219.62 50.7379 221.992 47.3149 221.992 43.1698C221.992 35.1694 216.192 30 207.222 30C197.786 30 191.778 35.4306 191.528 44.1722L191.496 45.2663H202.79L202.88 44.309C203.123 41.6709 204.45 40.3348 206.82 40.3348C208.997 40.3348 210.296 41.3769 210.296 43.1219C210.296 44.9873 208.624 46.9511 206.094 49.9283L192.585 65.4941L192.326 65.7908V71.9025H222.276V61.9192L209.64 61.9138Z" fill="#000712"/>
<path d="M74.0918 82.1375H77.5285V94.5647H83.5965V97.6869H74.0918V82.1375Z" fill="#000712"/>
<path d="M92.8063 81.8927C97.4232 81.8927 101.106 85.4402 101.106 89.945C101.106 94.4757 97.4232 98 92.8063 98C88.1893 98 84.5078 94.4757 84.5078 89.945C84.5078 85.4402 88.2098 81.8927 92.8063 81.8927ZM92.8063 94.8778C95.5291 94.8778 97.6707 92.6897 97.6707 89.945C97.6707 87.2454 95.551 85.0148 92.8063 85.0148C90.0615 85.0148 87.9432 87.2235 87.9432 89.945C87.9432 92.7362 90.0629 94.8778 92.8063 94.8778Z" fill="#000712"/>
<path d="M103.58 82.1375H106.635L114.087 91.7981V82.1375H117.412V97.6869H114.601L106.905 87.7596V97.6869H103.58V82.1375Z" fill="#000712"/>
<path d="M128.252 81.8927C129.373 81.8829 130.485 82.1014 131.52 82.535C132.554 82.9685 133.489 83.608 134.269 84.4145L131.944 86.4426C131.006 85.5058 129.67 85.0149 128.242 85.0149C125.475 85.0149 123.309 87.1141 123.309 89.9231C123.309 92.7321 125.475 94.8108 128.242 94.8108C129.578 94.8108 130.761 94.3841 131.631 93.606V91.5067H127.56V88.4735H134.856V94.7643C133.428 96.6611 131.015 97.933 128.252 97.933C123.632 97.933 119.885 94.5646 119.885 89.9231C119.885 85.2815 123.632 81.8927 128.252 81.8927Z" fill="#000712"/>
<path d="M143.881 82.1375H147.318V97.6869H143.881V82.1375Z" fill="#000712"/>
<path d="M151.8 92.7786C152.535 94.0094 153.896 94.8299 155.703 94.8299C157.422 94.8299 158.028 94.0272 158.028 93.2914C158.028 91.9238 156.289 91.5943 154.123 90.7915C151.885 89.9887 150.35 88.7866 150.35 86.2867C150.35 83.4982 152.847 81.8927 155.703 81.8927C158.335 81.8927 159.942 83.1426 160.9 84.4815L158.602 86.3113C158.044 85.5291 157.129 84.9725 155.789 84.9725C154.518 84.9725 153.738 85.5058 153.738 86.2429C153.738 87.5367 154.968 87.5818 157.487 88.5678C160.298 89.6373 161.453 90.9556 161.453 93.1861C161.453 95.9308 159.625 97.9384 155.675 97.9384C152.329 97.9384 150.254 96.3753 149.293 94.5031L151.8 92.7786Z" fill="#000712"/>
<path d="M163.801 82.1375H167.236V94.5647H173.305V97.6869H163.801V82.1375Z" fill="#000712"/>
<path d="M180.996 82.1375H184.054L190.482 97.6869H186.824L185.775 95.0775H179.283L178.235 97.6869H174.574L180.996 82.1375ZM184.789 92.3314L182.538 86.6874L180.261 92.3314H184.789Z" fill="#000712"/>
<path d="M192.15 82.1375H195.206L202.657 91.7981V82.1375H205.981V97.6869H203.172L195.475 87.7596V97.6869H192.15V82.1375Z" fill="#000712"/>
<path d="M209.051 82.1375H214.94C220.361 82.1375 223.194 85.4402 223.194 89.945C223.194 94.5195 220.384 97.6869 214.961 97.6869H209.051V82.1375ZM214.74 94.5647C218.666 94.5647 219.738 92.5133 219.738 89.945C219.738 87.3124 218.666 85.2597 214.717 85.2597H212.486V94.5592L214.74 94.5647Z" fill="#000712"/>
</svg>
