<svg width="330" height="136" viewBox="0 0 440 128" fill="none" xmlns="http://www.w3.org/2000/svg">
<path d="M33.8915 40.2059C33.8915 35.357 29.2827 33.8927 25.4179 34.0608V34.4928C27.7224 34.6609 29.4987 35.597 29.4987 37.1573C29.4987 38.2375 28.7306 39.5818 26.4261 39.5818C24.6018 39.5818 21.5772 38.5016 18.7447 37.5654C15.6241 36.4852 12.6475 35.477 10.1751 35.477C5.32616 35.477 1.65348 39.0777 1.65348 43.5425C1.65348 47.1432 4.438 48.3914 5.56621 48.8475L5.63822 48.6795C4.91809 48.1994 4.462 47.6713 4.462 46.135C4.462 44.8388 5.39818 43.1105 7.89465 43.1105C10.1511 43.1105 13.1036 44.1186 17.0164 45.2228C20.377 46.159 24.0017 47.0472 26.018 47.3112V55.1847L22.2253 58.3053L26.018 61.5699V72.3479C24.0737 73.4521 21.8173 73.8122 19.8729 73.8122C16.2722 73.8122 12.9596 72.804 10.2231 69.7795L20.449 64.8105V47.7913L7.96666 53.3604C9.2629 50.0478 11.6874 47.5753 14.3519 45.967L14.2798 45.775C6.86245 47.7913 0.117188 54.5846 0.117188 62.9862C0.117188 73.0441 8.15869 80.5095 17.4484 80.5095C27.5063 80.5095 33.4114 72.636 33.3154 64.3064H33.1234C31.6591 67.499 29.2106 70.5236 26.4501 72.1079V61.5939L30.4109 58.4013L26.4501 55.2087V47.3352C30.1228 47.3352 33.9155 44.9108 33.9155 40.2299M12.8396 67.9551L9.93503 69.4194C8.1587 67.115 6.98247 63.8503 6.98247 59.6496C6.98247 57.9212 7.17451 55.5688 7.75062 53.9125L12.8876 51.608L12.8156 67.9311L12.8396 67.9551ZM59.5763 54.1285L57.632 55.6648L51.7029 50.3838L44.8376 55.6888V35.189L35.4998 41.6462C36.58 42.0062 37.8763 42.5824 37.8763 45.0788V73.4281L34.6837 75.8526L34.9717 76.1407L36.58 75.0364L42.1491 80.1254L49.6145 75.1565L49.3744 74.7964L47.4781 76.0446L44.8856 73.4521V56.3609L46.6619 55.0647L50.7427 58.6174V73.4762C50.7427 82.8859 48.6543 84.8303 44.4295 86.3666V86.6066C51.4628 86.8947 57.8 84.5182 57.8 72.468V56.2649L59.9124 54.5366L59.6243 54.1765L59.5763 54.1285ZM72.1067 80.0534L82.9327 71.3638L82.6447 70.9557L76.9796 75.4445L70.4744 70.3076V67.115L81.7085 59.1935L76.0434 50.3838L63.5611 57.2491V73.5722L61.1366 75.4685L61.4247 75.8286L63.7291 74.0042L72.1307 80.1014H72.1067V80.0534ZM70.4504 66.4428V54.0805L75.8994 62.6021L70.4504 66.4428ZM127.701 37.9015C127.701 37.1333 127.509 36.4852 127.221 35.597H127.053C126.285 37.6854 125.445 38.7896 123.02 38.7896C120.908 38.7896 119.228 37.4934 118.339 36.5332C118.339 36.6052 111.234 44.7428 111.234 44.7428L111.594 45.0308L113.61 42.7264C115.147 43.9026 116.515 45.2709 119.924 45.3189V66.0588L105.377 40.854C104.249 38.9577 102.304 36.1251 98.9917 36.1251C95.079 36.1251 92.1264 39.4858 92.6065 45.1748H92.8466C93.1346 43.7586 93.9748 41.9822 95.6791 41.9822C97.0474 41.9822 98.1516 43.2785 98.7997 44.4547V52.5682C94.3108 52.5682 91.7664 54.6566 91.7664 58.1853C91.7664 59.6496 92.8466 62.8422 95.8951 63.3943V63.2262C95.4871 62.8181 95.079 62.4581 95.079 61.6179C95.079 60.2497 96.0872 59.5055 97.9115 59.5055C98.1996 59.5055 98.6317 59.5775 98.7997 59.6255V70.1395C93.5187 70.2115 89.4619 73.0921 89.4619 78.085C89.4619 83.0779 93.5427 84.9983 97.7915 84.7583V84.5902C95.127 84.3022 93.7587 82.9339 93.7587 80.9896C93.7587 78.8772 95.295 77.7249 97.2394 77.7249C99.1838 77.7249 100.672 78.9732 101.92 80.3894L109.026 72.3959L108.738 72.1079L106.913 74.1963C104.177 71.7718 102.424 70.6436 99.2798 70.1635V45.2469L119.348 80.2214H120.428V45.3669C124.268 45.1268 127.701 42.2463 127.701 37.9015ZM134.446 80.0054L145.272 71.3157L144.984 70.9077L139.319 75.3965L132.814 70.2595V67.0669L144.048 59.1455L138.383 50.3358L125.901 57.2011V73.5242L123.476 75.4205L123.764 75.7806L126.069 73.9562L134.47 80.0534L134.446 80.0054ZM132.79 66.3948V54.0325L138.239 62.5541L132.79 66.3948ZM183.728 53.1443L182.071 54.3926L177.342 50.3598L171.845 55.3287L174.102 57.4411V75.9726L168.485 72.1319V57.1051L170.429 55.7368L164.644 50.3598L159.267 55.3287L161.523 57.4411V75.3485L161.163 75.5885L155.882 71.7478V57.0331C155.882 53.6004 154.154 52.5922 151.97 51.248C150.145 50.1198 149.185 49.0636 149.185 47.3352C149.185 45.4389 150.841 44.6707 151.37 44.3827C149.473 44.3107 144.216 46.207 144.096 51.0079C144.024 53.4804 145.224 54.5606 146.473 55.7368C147.721 56.913 148.897 58.0413 148.897 60.1296V74.5564L146.353 76.5727L146.641 76.8608L149.065 74.9644L155.378 80.1014L161.403 75.9006L168.029 80.1014L181.039 72.4199V55.7368L183.944 53.4804L183.704 53.1203L183.728 53.1443ZM227.296 39.1257L224.823 41.3821L219.254 36.5332L211.741 42.5583V36.8933H211.285V77.5329C210.469 77.4129 208.74 76.9328 206.844 76.6447V42.6304C206.844 40.1579 205.068 36.7012 200.627 36.7012C196.186 36.7012 193.401 40.446 193.401 43.6866H193.593C193.833 42.2223 194.842 40.902 196.306 40.902C197.77 40.902 199.139 41.8382 199.139 45.1748V54.8727C194.938 55.0407 192.393 57.6572 192.393 60.4897C192.393 62.098 193.401 65.0986 196.594 65.2186V64.9786C195.514 64.5225 195.298 63.9704 195.298 63.3703C195.298 61.954 196.666 61.4739 198.562 61.4739H199.018V77.1008C195.418 78.3491 193.737 80.7735 193.737 83.7741C193.737 87.9029 197.05 91.0955 201.899 91.0955C205.332 91.0955 207.756 90.4953 210.901 89.7992C213.445 89.2711 216.206 88.671 217.694 88.671C219.59 88.671 220.43 89.5112 220.43 90.8554C220.43 92.5837 219.782 93.4479 218.774 93.76V94C222.855 93.2319 225.231 90.8794 225.231 87.2067C225.231 83.534 221.631 81.1096 217.598 81.1096C215.51 81.1096 211.741 81.7577 208.668 82.4778C205.236 83.246 202.283 83.606 201.203 83.606C199.475 83.606 197.362 82.8379 197.362 80.5335C197.362 78.4451 199.09 76.7888 203.339 76.7888C205.644 76.7888 207.9 77.1488 210.733 77.797C213.757 78.4451 215.822 79.3332 218.414 79.3332C222.015 79.3332 224.919 78.037 224.919 72.756V41.9342L227.584 39.5098L227.296 39.1497V39.1257ZM217.118 55.4008C216.47 56.1209 215.702 56.697 214.453 56.697C213.085 56.697 212.365 55.9769 211.717 55.4008V43.1825L213.493 41.7662L217.094 44.8388V55.4248L217.118 55.4008ZM217.118 61.1858C216.518 60.5857 215.75 60.0576 214.453 60.0576C213.157 60.0576 212.269 60.7058 211.717 61.1858V55.9769C212.245 56.433 213.133 57.1531 214.453 57.1531C215.774 57.1531 216.542 56.553 217.118 55.9769V61.1858ZM217.118 73.4281C217.118 75.4445 216.11 77.7009 213.517 77.7009C213.109 77.7009 212.149 77.6289 211.741 77.5809V61.786C212.341 61.2579 213.109 60.5377 214.477 60.5377C215.726 60.5377 216.422 61.1378 217.142 61.786V73.4521L217.118 73.4281ZM238.194 80.0054L250.268 72.492V56.0489L242.467 50.3118L230.392 57.2251V73.5002L228.016 75.3965L228.256 75.7566L230.2 74.1483L238.194 80.0054ZM237.306 71.4838V53.9605L243.331 58.4493V75.9726L237.306 71.4838ZM273.336 50.7199C272.4 51.368 271.56 51.7281 270.672 51.7281C269.736 51.7281 268.56 51.128 267.935 50.3598C267.935 50.4318 263.447 55.2087 263.447 55.2087L258.958 50.3598L251.636 55.4488L251.876 55.8568L253.821 54.5606L256.485 57.4651V73.3801L253.293 75.8046L253.581 76.0926L255.189 74.9884L261.166 80.0774L268.728 75.0604L268.488 74.7004L266.543 75.8766L263.471 73.0921V55.6168C264.719 56.9851 266.135 58.1613 267.839 58.1613C270.912 58.1613 272.976 54.4886 273.336 50.6959M301.854 74.2443L299.597 75.6606L287.115 57.0331L287.763 56.1449C289.131 56.961 290.356 58.0893 292.972 58.0893C295.589 58.0893 298.901 55.3527 299.189 50.3358C298.541 51.224 297.245 52.2802 295.108 52.2802C293.572 52.2802 292.036 51.272 291.1 50.3358L282.578 62.8662L293.884 80.0774L302.094 74.6284L301.854 74.2203V74.2443ZM286.707 74.7004L284.811 75.9486L282.218 73.3561V35.189L272.88 41.6462C273.961 42.0062 275.257 42.5824 275.257 45.0788V73.4281L272.064 75.8526L272.352 76.1407L273.961 75.0364L279.53 80.1254L286.995 75.1565L286.755 74.7964L286.707 74.7004ZM341.653 40.1579C341.653 35.309 337.044 33.8447 333.18 34.0127V34.4928C335.484 34.6609 337.26 35.597 337.26 37.1573C337.26 38.2375 336.492 39.5818 334.188 39.5818C332.363 39.5818 329.339 38.5016 326.506 37.5654C323.386 36.4852 320.409 35.477 317.937 35.477C313.088 35.477 309.415 39.0777 309.415 43.5185C309.415 47.1192 312.2 48.3674 313.328 48.8235L313.4 48.6555C312.68 48.1754 312.224 47.6473 312.224 46.111C312.224 44.8148 313.16 43.0864 315.656 43.0864C317.913 43.0864 320.865 44.0946 324.778 45.1988C328.139 46.135 331.763 47.0232 333.78 47.2872V55.1607L329.987 58.2813L333.78 61.5459V72.3239C331.835 73.4281 329.579 73.7882 327.635 73.7882C324.034 73.7882 320.697 72.78 317.985 69.7555L328.211 64.7865V47.7913L315.728 53.3604C317.025 50.0478 319.449 47.5753 322.114 45.967L322.042 45.775C314.648 47.7913 307.903 54.5846 307.903 62.9862C307.903 73.0441 315.944 80.5095 325.234 80.5095C335.292 80.5095 341.197 72.636 341.101 64.3064H340.933C339.469 67.499 337.02 70.5236 334.26 72.1079V61.5939L338.221 58.4013L334.26 55.2087V47.3352C337.932 47.3352 341.725 44.9108 341.725 40.2299M320.649 67.9791L317.745 69.4434C315.968 67.139 314.792 63.8743 314.792 59.6736C314.792 57.9452 314.96 55.5928 315.56 53.9365L320.697 51.632L320.625 67.9551L320.649 67.9791ZM349.287 38.4296L344.078 42.7984L348.518 47.8153L353.727 43.4465L349.287 38.4296ZM357.208 74.7964L355.312 76.0446L352.719 73.4521V56.2409L354.904 54.5126L354.616 54.1525L352.791 55.5688L348.47 50.4318L341.365 55.4008L341.605 55.8088L343.382 54.6326L345.758 57.5852V73.4521L342.565 75.8766L342.853 76.1646L344.462 75.0604L350.031 80.1494L357.496 75.1805L357.256 74.8204L357.208 74.7964ZM397.128 74.5564L395.351 75.7326L392.567 73.0681V56.1929L394.823 54.4646L394.535 54.1045L392.519 55.6408L386.59 50.3598L379.916 55.5688L374.059 50.3598L367.482 55.4968L363.041 50.3598L355.936 55.3287L356.176 55.7368L357.952 54.5606L360.497 57.4651V73.3321L358.552 75.2765L364.217 80.0774L369.714 75.1085L367.458 72.9961V56.0969L368.922 55.0167L373.003 58.5694V73.3561L371.107 75.3005L376.844 80.1014L382.221 75.1325L379.964 73.0201V56.1209L381.381 54.9927L385.509 58.5934V73.1401L383.853 74.8684L389.638 80.1494L397.272 74.9404L397.032 74.5804H397.08L397.128 74.5564ZM417.771 70.9557L412.106 75.4445L405.601 70.3076V67.115L416.835 59.1935L411.17 50.3838L398.688 57.2491V73.8842L407.258 80.1014L418.084 71.4118L417.795 71.0037L417.771 70.9557ZM405.577 66.4428V54.0805L411.026 62.6021L405.577 66.4428ZM439.472 64.1144L434.671 60.4417C437.863 57.6572 438.991 54.1285 438.991 51.584C438.991 51.224 438.919 50.5759 438.871 49.9757H438.679C438.223 51.272 436.951 52.4002 435.007 52.4002C433.062 52.4002 431.982 51.32 430.806 50.0237L419.812 56.1209V65.0506L424.013 68.3632C419.812 72.0839 418.996 74.3883 418.996 76.5247C418.996 78.6611 420.244 80.5335 422.38 81.3736L422.548 81.0856C422.02 80.6295 421.54 80.3174 421.54 79.1892C421.54 78.3731 422.38 77.0768 424.277 77.0768C426.701 77.0768 428.189 78.7331 428.958 79.6213C428.958 79.5493 439.472 73.1641 439.472 73.1641V64.1144ZM436.999 56.793C435.343 59.7456 431.694 62.6501 429.534 64.3064L426.869 62.05V53.3604C427.949 55.7368 430.134 57.7292 432.966 57.7292C434.623 57.7292 435.703 57.4411 436.975 56.793M432.414 76.3087C431.166 73.5242 428.501 71.5078 425.549 71.5078C424.829 71.5078 422.644 71.4358 420.748 72.612C421.876 70.7156 425.237 67.307 429.51 64.7385L432.414 67.163V76.2847V76.3087Z" fill="#000712"/>
</svg>
